<svg width="415" height="415" viewBox="0 0 415 415" fill="none" xmlns="http://www.w3.org/2000/svg">
<g clip-path="url(#clip0_1_1308)">
<path d="M415 0H0V415H415V0Z" fill="#F0FEFF"/>
<mask id="mask0_1_1308" style="mask-type:luminance" maskUnits="userSpaceOnUse" x="0" y="0" width="415" height="415">
<path d="M415 0H0V415H415V0Z" fill="white"/>
</mask>
<g mask="url(#mask0_1_1308)">
<path d="M-120.091 415L502.409 415L502.409 0L-120.091 0V415Z" fill="url(#paint0_linear_1_1308)"/>
<mask id="mask1_1_1308" style="mask-type:luminance" maskUnits="userSpaceOnUse" x="-121" y="0" width="624" height="415">
<path d="M-120.091 415L502.409 415L502.409 0L-120.091 0V415Z" fill="white"/>
</mask>
<g mask="url(#mask1_1_1308)">
<path d="M-120.091 216.269L502.409 216.269V-0.917618L-120.091 -0.917618V216.269Z" fill="url(#paint1_linear_1_1308)"/>
<path d="M-144.432 216.279H226.454C226.454 216.279 195.908 205.136 166.838 208.747C164.494 209.057 162.112 208.899 159.83 208.283C157.547 207.666 155.409 206.603 153.54 205.156C144.562 198.172 124.251 186.361 89.3448 187.199C76.6753 187.488 63.537 190.072 53.1121 192.755C46.8133 194.365 40.2278 194.496 33.8699 193.139C27.512 191.782 21.5537 188.974 16.4604 184.934C-4.12996 168.664 -41.9189 144.033 -82.96 143.374C-144.432 142.307 -144.432 216.279 -144.432 216.279Z" fill="url(#paint2_linear_1_1308)" style="mix-blend-mode:soft-light"/>
<path opacity="0.1" d="M-120.091 277.87V415H495.875V380.872L497.372 359.025C497.372 359.025 477.42 373.989 406.121 355.613C336.29 337.656 352.82 327.68 352.82 327.68C359.254 320.627 386.608 335.861 420.527 349.717C454.445 363.574 499.686 342.445 499.686 342.445L502.409 334.035C502.409 334.035 443.701 354.376 406.77 337.177C369.839 319.979 329.646 312.347 297.493 315.33C287.687 316.238 203.22 329.885 203.22 329.885L212.099 329.267C158.678 332.998 96.707 337.377 73.1737 314.243C25.728 267.475 -120.091 277.87 -120.091 277.87ZM370.398 370.168C370.398 366.317 376.134 363.185 383.217 363.185C390.3 363.185 396.026 366.307 396.026 370.168C396.026 374.029 390.29 377.151 383.217 377.151C376.144 377.151 370.398 374.029 370.398 370.168ZM311.44 334.255C340.939 337.297 369.998 359.953 348.271 374.747C326.543 389.541 271.995 330.204 311.44 334.274V334.255ZM250.397 341.836C250.397 336.759 259.136 332.638 269.92 332.638C280.704 332.638 289.433 336.759 289.433 341.836C289.433 346.914 286.54 355.613 269.92 351.044C259.375 348.161 250.397 346.914 250.397 341.836Z" fill="#03A5C8"/>
<path d="M329.736 428.029C329.736 428.029 333.068 406.86 256.602 390.399C180.136 373.939 62.5394 373.939 39.0161 346.884C15.4928 319.829 -144.432 310.432 -144.432 310.432C-144.432 310.432 -133.847 450.375 -136.202 446.843C-138.556 443.312 329.736 428.029 329.736 428.029Z" fill="#01BBDC"/>
</g>
<path d="M69.9139 121.058C79.8437 108.499 77.7117 90.2675 65.1519 80.3377C52.5922 70.408 34.3609 72.54 24.4312 85.0997C14.5014 97.6594 16.6334 115.891 29.1932 125.82C41.7529 135.75 59.9842 133.618 69.9139 121.058Z" fill="url(#paint3_linear_1_1308)"/>
<path d="M25.1095 235.233C25.1095 235.233 88.4967 236.111 80.5758 238.755C72.6549 241.398 -3.45168 244.032 -1.93534 247.553C-0.418991 251.075 116.429 251.294 110.613 255.694C104.797 260.093 -33.9183 258.118 -25.9375 259.884C-21.0293 260.971 40.1632 263.764 84.4166 266.987C111.481 268.982 42.1385 270.029 44.3132 272.204C51.2964 279.187 -6.32476 276.424 -8.7589 275.875C-16.2608 274.159 17.1786 273.421 14.5749 269.471C11.1631 264.193 -46.9469 262.288 -43.565 258.926C-38.8065 254.187 -2.01514 258.457 -15.0338 249.15C-15.0338 249.15 -20.1315 244.341 -4.12007 241.648C11.8913 238.954 49.1715 240.131 43.176 238.944C37.1804 237.757 16.59 237.079 25.1095 235.233Z" fill="#99E4F1"/>
<path d="M165.681 132.122C166.705 132.254 167.746 132.182 168.743 131.91C169.739 131.637 170.672 131.17 171.487 130.536C175.477 127.433 184.456 122.176 199.998 122.555C205.434 122.78 210.827 123.61 216.079 125.029C218.874 125.742 221.796 125.799 224.616 125.197C227.437 124.595 230.08 123.349 232.34 121.557C241.478 114.335 258.278 103.421 276.464 103.112C286.959 102.932 301.903 110.244 309.863 117.367C312.526 119.738 315.632 121.556 319.002 122.717C322.372 123.878 325.939 124.359 329.496 124.131C343.822 123.233 361.419 121.557 362.636 136.182L295.289 135.454H139.145C139.145 135.454 152.762 130.486 165.681 132.122Z" fill="url(#paint4_linear_1_1308)" style="mix-blend-mode:soft-light"/>
<path d="M246.606 214.793H248.402V211.032C248.443 210.014 248.887 209.055 249.635 208.365C250.383 207.675 251.375 207.31 252.392 207.35H304.915C305.932 207.31 306.924 207.675 307.672 208.365C308.421 209.055 308.864 210.014 308.906 211.032V214.793H310.691V211.032C310.632 209.563 309.992 208.178 308.914 207.179C307.835 206.181 306.404 205.65 304.935 205.704H252.392C250.923 205.65 249.492 206.181 248.414 207.179C247.335 208.178 246.695 209.563 246.636 211.032L246.606 214.793Z" fill="#DBDBDB"/>
<path d="M305.105 206.532H303.319V214.802H305.105V206.532Z" fill="#DBDBDB"/>
<path d="M299.419 206.532H297.633V214.802H299.419V206.532Z" fill="#DBDBDB"/>
<path d="M293.732 206.532H291.947V214.802H293.732V206.532Z" fill="#DBDBDB"/>
<path d="M288.046 206.532H286.26V214.802H288.046V206.532Z" fill="#DBDBDB"/>
<path d="M282.37 206.532H280.584V214.802H282.37V206.532Z" fill="#DBDBDB"/>
<path d="M276.683 206.532H274.898V214.802H276.683V206.532Z" fill="#DBDBDB"/>
<path d="M270.997 206.532H269.211V214.802H270.997V206.532Z" fill="#DBDBDB"/>
<path d="M265.311 206.532H263.525V214.802H265.311V206.532Z" fill="#DBDBDB"/>
<path d="M259.624 206.532H257.839V214.802H259.624V206.532Z" fill="#DBDBDB"/>
<path d="M253.938 206.532H252.152V214.802H253.938V206.532Z" fill="#DBDBDB"/>
<path d="M235.313 228.619H268.862V214.792H244.341L235.313 228.619Z" fill="white"/>
<path d="M247.583 248.282H394.24L427.071 228.619L420.437 223.162L418.192 221.317L415.968 219.481L415.23 218.882L385.521 194.461L384.154 193.344L383.476 192.785L383.426 192.745L374.328 184.505L368.053 178.819L319.61 177.881L278.01 177.073L277.701 177.881L276.753 180.405H267.745L265.071 184.505L258.727 194.222H271.456L271.356 194.461L262.368 214.792L260.303 219.481L258.677 223.162L256.273 228.619L252.212 237.807L249.439 244.082L247.583 248.282Z" fill="white"/>
<g opacity="0.2" style="mix-blend-mode:multiply">
<path d="M265.071 184.505H374.328L368.053 178.819L319.61 177.881H277.701L276.753 180.405H267.745L265.071 184.505Z" fill="#DBDBDB"/>
</g>
<path d="M357.728 214.792L336.39 194.461H385.451L410.202 214.792H357.728Z" fill="#151228"/>
<path d="M369.081 214.792L347.104 194.461H365.689L387.666 214.792H369.081Z" fill="white"/>
<path d="M390.709 214.792L368.741 194.461H375.525L397.492 214.792H390.709Z" fill="#243852"/>
<path d="M284.894 173.881H287.677V151.924H284.894V173.881Z" fill="#DE5C00"/>
<path d="M291.348 159.825V157.251H281.222V159.825H291.348Z" fill="#0C4D77"/>
<path d="M294.361 155.964V153.39H278.22V155.964H294.361Z" fill="#0C4D77"/>
<path d="M287.677 173.881H294.231V172.275H287.677V173.881Z" fill="#253B51"/>
<path d="M284.894 173.881H287.677V172.275H284.894V173.881Z" fill="#DE5C00"/>
<path d="M268.862 214.792H350.426L329.097 194.461H277.851L268.862 214.792Z" fill="#151228"/>
<path d="M320.627 214.792L298.66 194.461H318.612L340.589 214.792H320.627Z" fill="#243852"/>
<path d="M310.262 214.792L288.295 194.461H295.079L317.056 214.792H310.262Z" fill="#243852"/>
<path d="M251.195 248.282L251.484 248.95H361.958L361.26 248.282L340.629 228.619H263.884L262.637 231.422L257.051 244.082L251.195 248.282Z" fill="#151228"/>
<path d="M345.338 248.95L323.361 228.619H330.144L352.122 248.95H345.338Z" fill="#243852"/>
<path d="M262.637 231.422L281.572 248.95H288.355L266.388 228.619H263.884L262.637 231.422Z" fill="#243852"/>
<path d="M313.465 248.95L291.498 228.619H318.014L339.991 248.95H313.465Z" fill="#243852"/>
<g opacity="0.2" style="mix-blend-mode:multiply">
<path d="M247.583 248.282H394.24L427.071 228.619L420.437 223.162L418.192 221.317H352.132L329.945 237.807H252.212L249.439 244.082L247.583 248.282Z" fill="#DBDBDB"/>
</g>
<path d="M178.699 285.951H453.338C467.304 285.951 480.273 279.477 487.964 268.722L491.615 263.615L511.388 235.961H357.658L354.665 238.136L352.97 239.363L339.093 249.509H196.337L193.883 254.577L186.9 269.002L178.699 285.951Z" fill="white"/>
<g opacity="0.2" style="mix-blend-mode:multiply">
<path d="M178.699 285.951H453.338C467.304 285.951 480.273 279.477 487.964 268.722L491.615 263.615L511.388 235.961H357.658L354.665 238.136L352.97 239.363L339.093 249.509H196.337L193.883 254.577H338.185L357.598 239.363H481.121C470.806 248.872 458.768 256.321 445.656 261.31C432.518 266.298 379.815 269.012 365.28 269.012H186.9L178.699 285.951Z" fill="#DBDBDB"/>
</g>
<path d="M199.519 244.411H201.305V240.64C201.325 240.137 201.445 239.643 201.657 239.186C201.869 238.729 202.168 238.318 202.539 237.977C202.91 237.636 203.344 237.372 203.817 237.199C204.29 237.026 204.792 236.948 205.295 236.969H257.809C258.312 236.948 258.814 237.026 259.287 237.199C259.76 237.372 260.195 237.636 260.565 237.977C260.936 238.318 261.236 238.729 261.447 239.186C261.659 239.643 261.779 240.137 261.799 240.64V244.411H263.595V240.64C263.533 239.171 262.891 237.785 261.811 236.787C260.73 235.789 259.299 235.259 257.829 235.313H205.235C203.767 235.262 202.338 235.793 201.26 236.791C200.182 237.789 199.542 239.172 199.479 240.64L199.519 244.411Z" fill="#DBDBDB"/>
<path d="M257.978 236.101H256.193V244.371H257.978V236.101Z" fill="#DBDBDB"/>
<path d="M252.292 236.101H250.506V244.371H252.292V236.101Z" fill="#DBDBDB"/>
<path d="M246.606 236.101H244.82V244.371H246.606V236.101Z" fill="#DBDBDB"/>
<path d="M240.919 236.101H239.134V244.371H240.919V236.101Z" fill="#DBDBDB"/>
<path d="M235.233 236.101H233.448V244.371H235.233V236.101Z" fill="#DBDBDB"/>
<path d="M229.547 236.101H227.761V244.371H229.547V236.101Z" fill="#DBDBDB"/>
<path d="M223.871 236.101H222.085V244.371H223.871V236.101Z" fill="#DBDBDB"/>
<path d="M218.184 236.101H216.399V244.371H218.184V236.101Z" fill="#DBDBDB"/>
<path d="M212.498 236.101H210.712V244.371H212.498V236.101Z" fill="#DBDBDB"/>
<path d="M206.812 236.101H205.026V244.371H206.812V236.101Z" fill="#DBDBDB"/>
<path d="M197.704 243.683H337.267L357.658 228.619H508.365C509.847 228.562 511.292 229.095 512.382 230.101C513.472 231.107 514.119 232.504 514.181 233.986C514.173 234.258 514.112 234.525 514 234.773C513.888 235.021 513.729 235.244 513.53 235.429C513.332 235.615 513.098 235.759 512.843 235.854C512.589 235.949 512.318 235.992 512.046 235.981H357.658L337.267 251.055H194.033C193.761 251.064 193.491 251.02 193.237 250.925C192.983 250.83 192.75 250.685 192.552 250.5C192.353 250.315 192.194 250.092 192.081 249.845C191.969 249.598 191.907 249.331 191.898 249.06C191.957 247.578 192.602 246.18 193.69 245.172C194.778 244.164 196.222 243.629 197.704 243.683Z" fill="#0C4D77"/>
<path d="M354.685 272.194H363.983V263.595H354.685V272.194Z" fill="#151228"/>
<path d="M354.685 263.595L363.983 272.194H359.364L354.685 267.894V263.595Z" fill="#243852"/>
<path d="M339.991 272.194H349.288V263.595H339.991V272.194Z" fill="#151228"/>
<path d="M339.991 263.595L349.288 272.194H344.669L339.991 267.894V263.595Z" fill="#243852"/>
<path d="M325.296 272.194H334.594V263.595H325.296V272.194Z" fill="#151228"/>
<path d="M325.296 263.595L334.594 272.194H329.975L325.296 267.894V263.595Z" fill="#243852"/>
<path d="M285.203 272.194H294.5V263.595H285.203V272.194Z" fill="#151228"/>
<path d="M285.203 263.595L294.5 272.194H289.892L285.203 267.894V263.595Z" fill="#243852"/>
<path d="M270.518 272.194H279.816V263.595H270.518V272.194Z" fill="#151228"/>
<path d="M270.518 263.595L279.806 272.194H275.197L270.518 267.894V263.595Z" fill="#243852"/>
<path d="M255.824 272.194H265.121V263.595H255.824V272.194Z" fill="#151228"/>
<path d="M255.814 263.595L265.111 272.194H260.502L255.814 267.894V263.595Z" fill="#243852"/>
<path d="M240.71 272.194H250.008V263.595H240.71V272.194Z" fill="#151228"/>
<path d="M240.71 263.595L250.008 272.194H245.399L240.71 267.894V263.595Z" fill="#243852"/>
<path d="M226.015 272.194H235.313V263.595H226.015V272.194Z" fill="#151228"/>
<path d="M226.015 263.595L235.313 272.194H230.694L226.015 267.894V263.595Z" fill="#243852"/>
<path d="M244.77 223.162H420.437L415.968 219.481H247.414L244.77 223.162Z" fill="#0C4D77"/>
<path d="M267.585 181.283H371.156C371.427 181.294 371.698 181.251 371.953 181.156C372.208 181.061 372.441 180.917 372.64 180.731C372.838 180.546 372.998 180.322 373.11 180.075C373.221 179.827 373.283 179.56 373.291 179.288C373.231 177.806 372.586 176.408 371.498 175.4C370.41 174.392 368.967 173.857 367.485 173.911H271.266C269.784 173.857 268.341 174.392 267.253 175.4C266.165 176.408 265.52 177.806 265.46 179.288C265.467 179.559 265.527 179.826 265.638 180.074C265.748 180.322 265.907 180.545 266.105 180.731C266.303 180.916 266.536 181.061 266.79 181.156C267.044 181.25 267.314 181.294 267.585 181.283Z" fill="#0C4D77"/>
<path d="M89.644 402.091C135.748 402.091 173.123 396.615 173.123 389.861C173.123 383.106 135.748 377.63 89.644 377.63C43.5399 377.63 6.16516 383.106 6.16516 389.861C6.16516 396.615 43.5399 402.091 89.644 402.091Z" fill="url(#paint5_linear_1_1308)"/>
<path d="M107.371 307.798C104.478 307.978 101.585 308.187 98.6823 308.088L98.0538 316.557C97.6547 321.914 97.1859 327.281 97.2058 332.658C97.2258 338.035 97.8543 343.393 98.3431 348.73L99.8395 365.04C100.039 367.185 100.229 369.32 100.428 371.455C100.8 375.445 101.166 379.436 101.525 383.426C101.528 383.45 101.537 383.472 101.551 383.491C101.565 383.511 101.584 383.526 101.605 383.536C102.852 383.376 103.072 383.616 104.319 383.426C105.147 383.296 105.416 382.798 105.376 381.87C105.306 380.543 105.705 376.104 106.184 371.136C106.753 365.29 107.441 358.706 107.641 355.593C107.85 352.783 107.82 349.959 107.551 347.153C107.252 344.31 106.424 341.577 106.144 338.734C105.865 335.891 108.299 329.336 108.608 326.453C108.918 323.57 112.349 312.487 112.728 309.644C112.79 309.204 112.826 308.761 112.838 308.317C111.007 308.264 109.18 308.09 107.371 307.798Z" fill="#FFA57A"/>
<path d="M138.107 382.149C138.028 381.68 137.229 377.111 136.162 370.906C136.162 370.827 136.162 370.747 136.162 370.677C134.167 359.244 131.324 342.385 130.276 334.953C129.589 329.303 128.559 323.699 127.194 318.173C126.815 316.767 126.396 315.38 125.967 314.003C125.777 313.385 125.578 312.766 125.378 312.148C125.209 311.524 125.003 310.911 124.759 310.312C124.291 309.315 123.293 309.903 122.545 310.143L120.041 310.821L118.046 311.47C117.834 311.387 117.617 311.317 117.397 311.26C116.776 311.054 116.133 310.917 115.482 310.851C115.402 310.203 115.332 309.544 115.262 308.856C115.262 308.829 115.252 308.804 115.233 308.785C115.214 308.767 115.189 308.756 115.163 308.756C115.136 308.756 115.111 308.767 115.092 308.785C115.073 308.804 115.063 308.829 115.063 308.856L115.272 310.851H114.644C114.514 310.851 114.514 311.08 114.644 311.08H115.302C115.302 311.28 115.362 311.47 115.382 311.669L113.636 311.759C113.619 311.76 113.601 311.765 113.586 311.773C113.57 311.781 113.556 311.793 113.546 311.808C113.535 311.822 113.528 311.838 113.525 311.856C113.521 311.873 113.522 311.891 113.527 311.909C114.195 316.896 115.193 319.48 116.519 324.339C117.831 328.435 119.369 332.455 121.128 336.38C123.213 339.512 122.126 344.729 122.126 346.166C122.056 347.556 122.086 348.95 122.216 350.336C122.712 353.025 123.453 355.663 124.43 358.217C126.136 362.886 133.588 378.169 134.715 380.763C134.975 381.341 135.204 381.95 135.484 382.518C135.663 382.878 135.873 383.167 136.262 383.197C136.651 383.227 136.212 383.576 136.601 383.546L137.06 383.436C137.147 383.246 137.274 383.078 137.432 382.942C137.591 382.805 137.777 382.705 137.978 382.648H138.147C138.15 382.481 138.137 382.314 138.107 382.149Z" fill="#FFA57A"/>
<path d="M119.851 218.653C118.03 217.358 115.799 216.773 113.576 217.007C112.447 217.161 111.343 217.466 110.294 217.915C109.823 218.08 109.392 218.342 109.027 218.683C109.027 218.613 108.339 218.883 108.269 218.962C106.084 221.556 106.015 222.793 105.995 225.477V225.567C105.995 226.035 105.995 226.564 105.995 227.113C106 227.183 106 227.253 105.995 227.322C106.064 228.44 106.174 229.746 106.294 231.313C106.354 232.211 106.454 233.657 106.683 235.104C106.783 235.732 106.902 236.351 107.052 236.929C107.331 237.927 107.491 239.772 108.05 240.301C108.361 240.609 108.742 240.838 109.161 240.968C109.579 241.099 110.023 241.126 110.454 241.049C111.7 240.951 112.919 240.634 114.055 240.111C115.995 238.966 117.731 237.506 119.193 235.792C120.809 234.026 121.627 234.904 122.385 232.679C123.612 229.048 123.313 221.307 119.851 218.653Z" fill="#FFA57A"/>
<path d="M111.561 234.096C112.931 237.98 114.295 241.864 115.651 245.748C115.831 246.237 116.001 246.745 116.17 247.204C116.26 247.484 116.34 248.88 116.579 249.08C116.833 249.237 117.117 249.339 117.412 249.379C117.708 249.419 118.009 249.395 118.295 249.309C120.23 248.731 122.216 247.005 124.281 247.045C124.37 247.045 124.4 246.945 124.38 246.875C123.092 241.239 121.507 235.674 119.632 230.205H119.712C119.743 230.205 119.774 230.193 119.796 230.17C119.819 230.148 119.831 230.117 119.831 230.086C119.831 230.054 119.819 230.023 119.796 230.001C119.774 229.978 119.743 229.966 119.712 229.966H119.512C119.462 229.846 119.422 229.716 119.382 229.597C119.372 229.566 119.35 229.541 119.321 229.527C119.292 229.513 119.258 229.511 119.228 229.522C119.197 229.532 119.172 229.555 119.158 229.584C119.144 229.613 119.142 229.646 119.153 229.677C119.153 229.786 119.233 229.896 119.263 229.996C117.997 230.263 116.837 230.898 115.931 231.821C114.754 232.879 113.437 234.166 111.711 233.926C111.688 233.921 111.665 233.923 111.643 233.93C111.621 233.937 111.602 233.95 111.586 233.967C111.571 233.985 111.561 234.006 111.556 234.028C111.552 234.051 111.554 234.074 111.561 234.096Z" fill="#FFA57A"/>
<path d="M109.287 234.774C108.429 234.836 107.576 234.953 106.733 235.123C106.833 235.752 106.952 236.37 107.102 236.949H107.341C107.789 236.896 108.212 236.712 108.554 236.419C108.897 236.126 109.145 235.737 109.267 235.303C109.329 235.164 109.366 235.016 109.377 234.864C109.374 234.841 109.364 234.819 109.348 234.803C109.331 234.787 109.31 234.776 109.287 234.774Z" fill="white"/>
<path d="M118.475 228.051C118.706 228.63 119.044 229.162 119.472 229.617C119.592 229.724 119.726 229.815 119.871 229.886C120.121 230.165 120.39 230.405 120.649 230.664C121.254 230.77 121.874 230.739 122.465 230.574C123.59 230.303 124.676 229.891 125.697 229.347C125.697 229.188 125.697 229.018 125.697 228.849C125.637 225.996 125.348 223.083 123.881 220.579C123.183 219.408 122.212 218.422 121.053 217.705C119.893 216.988 118.577 216.56 117.218 216.458C116.372 216.369 115.519 216.369 114.674 216.458C113.066 216.102 111.384 216.324 109.925 217.087C108.275 218.09 107.074 219.691 106.573 221.556C106.567 221.573 106.564 221.59 106.566 221.608C106.568 221.626 106.574 221.642 106.584 221.657C106.594 221.672 106.607 221.684 106.623 221.692C106.638 221.701 106.655 221.705 106.673 221.706C106.743 221.706 107.202 221.217 107.262 221.207H107.351L107.551 221.127C108.753 220.688 110.066 220.649 111.292 221.018C111.795 222.091 112.527 223.041 113.437 223.801C114.554 224.719 115.881 225.297 117.008 226.195C117.628 226.698 118.129 227.331 118.475 228.051Z" fill="#7D443B"/>
<path d="M107.461 232.959C107.461 232.061 107.321 231.163 107.212 230.265C107.102 229.367 106.982 228.609 106.863 227.781C106.863 227.492 106.803 226.784 106.374 226.843C106.359 226.835 106.341 226.83 106.324 226.83C106.306 226.83 106.289 226.835 106.274 226.843C106.268 226.856 106.265 226.869 106.265 226.883C106.265 226.897 106.268 226.911 106.274 226.923C105.995 227.791 105.715 228.669 105.446 229.537C105.138 230.302 104.897 231.094 104.728 231.901C104.688 232.174 104.733 232.451 104.856 232.698C104.979 232.944 105.174 233.146 105.416 233.278C105.758 233.512 106.122 233.713 106.503 233.876C106.693 233.966 107.002 234.146 107.222 234.086C107.621 233.986 107.471 233.268 107.461 232.959Z" fill="#FFA57A"/>
<path d="M107.052 229.447C107.052 230.165 107.491 230.724 107.91 230.694C108.329 230.664 108.648 230.056 108.598 229.337C108.549 228.619 108.169 228.07 107.74 228.1C107.312 228.13 107.002 228.769 107.052 229.447Z" fill="#001127"/>
<path d="M132.112 326.942C131.972 325.945 131.842 324.947 131.703 323.949C131.224 320.248 130.705 316.547 130.266 312.846C129.337 305.259 127.974 297.732 126.186 290.301C125.927 289.303 125.647 288.236 125.358 287.208C125.159 286.282 124.882 285.374 124.53 284.495C124.171 283.746 123.453 283.876 122.744 283.956H122.365V283.766C122.363 283.75 122.356 283.735 122.346 283.722C122.336 283.709 122.324 283.699 122.309 283.692C122.294 283.685 122.278 283.682 122.262 283.683C122.245 283.683 122.23 283.688 122.216 283.696L121.507 284.016C121.405 284 121.3 284 121.198 284.016H119.861C118.016 284.016 116.17 283.956 114.325 284.016C111.422 284.016 108.522 284.165 105.636 284.465C104.262 284.297 102.874 284.273 101.495 284.395C101.037 284.445 100.588 284.495 100.139 284.564C100.139 284.385 100.209 284.195 100.248 284.016C100.288 283.836 100.079 283.806 100.049 283.946C100.019 284.086 99.9592 284.385 99.9193 284.604L98.9815 284.794C98.683 284.815 98.3939 284.907 98.1387 285.064C97.8835 285.22 97.6696 285.435 97.5151 285.692C97.2635 286.45 97.1453 287.247 97.1659 288.046C97.0861 288.964 97.0362 289.892 96.9963 290.809C96.8966 292.735 96.7669 294.65 96.5674 296.555C95.7892 304.147 94.243 311.639 93.6943 319.251C93.4149 323.151 93.8838 331.601 93.8938 331.92C93.8922 331.944 93.8981 331.967 93.9107 331.987C93.9233 332.006 93.9418 332.022 93.9636 332.03C95.8178 332.429 97.698 332.696 99.5901 332.828L100.029 332.908C101.474 333.11 102.93 333.224 104.389 333.247L109.526 333.447C109.526 333.447 109.636 333.447 109.636 333.367C110.195 329.376 110.653 325.359 111.013 321.316C111.252 322.613 111.491 323.92 111.751 325.216C112.243 327.717 112.768 330.208 113.327 332.688C113.331 332.712 113.343 332.734 113.362 332.75C113.38 332.767 113.403 332.776 113.427 332.778C117.756 332.639 121.727 332.419 126.066 332.17C127.992 332.05 130.316 331.022 132.052 330.554C132.075 330.547 132.094 330.532 132.107 330.512C132.12 330.492 132.125 330.467 132.122 330.444C132.132 330.204 132.211 327.661 132.112 326.942ZM100.069 284.714H100.408C101.759 284.516 103.126 284.463 104.488 284.554L103.491 284.684C102.493 284.824 101.575 284.983 100.628 285.173C100.468 285.173 100.209 285.233 99.9692 285.303L100.069 284.714Z" fill="#10214F"/>
<path d="M133.818 247.653C130.346 246.316 127.104 245.349 123.552 244.241H123.473C123.512 244.514 123.485 244.791 123.393 245.05C123.301 245.309 123.146 245.542 122.944 245.728C121.95 246.468 120.867 247.081 119.722 247.553C118.845 248.157 117.842 248.549 116.789 248.701C114.704 248.751 113.906 246.825 113.796 244.96C112.24 245.309 110.933 245.648 110.224 245.858C100.797 248.621 101.934 251.195 101.515 252.172C100.518 254.467 97.8343 256.921 96.8866 259.235L93.8938 266.448C92.8529 268.716 92.0505 271.087 91.4996 273.521C90.9965 275.644 91.2213 277.875 92.138 279.856C92.7958 280.934 93.698 281.843 94.7717 282.509C94.7523 283.448 94.8191 284.386 94.9712 285.312C95.3304 287.527 96.717 289.443 96.8966 291.687C96.8966 291.716 96.9081 291.744 96.9287 291.765C96.9493 291.785 96.9772 291.797 97.0063 291.797C99.1212 291.797 101.116 292.635 103.161 293.084C105.05 293.487 106.969 293.738 108.898 293.832C112.993 293.982 117.094 293.792 121.158 293.263L128.141 292.465C128.172 292.463 128.201 292.45 128.223 292.428C128.245 292.406 128.259 292.377 128.261 292.346C128.111 290.42 128.85 288.634 129.318 286.799C129.947 285.915 130.4 284.92 130.655 283.866C131.074 282.39 131.393 280.873 131.773 279.397C133.379 273.102 135.923 267.076 137.439 260.762C139.225 253.1 137.549 249.09 133.818 247.653Z" fill="#01BBDC"/>
<path d="M106.214 371.106C104.708 371.176 101.675 371.325 100.428 371.425C100.801 375.415 101.166 379.406 101.525 383.396C101.528 383.42 101.537 383.442 101.551 383.461C101.565 383.481 101.584 383.496 101.605 383.506C102.852 383.346 103.072 383.586 104.319 383.396C105.147 383.266 105.416 382.768 105.376 381.84C105.336 380.543 105.745 376.094 106.214 371.106Z" fill="#DEFBFF"/>
<path d="M106.264 386.479C105.902 385.622 105.635 384.729 105.466 383.815C105.376 383.194 105.346 382.566 105.376 381.94C103.92 381.94 102.683 382.059 101.236 382.219C101.205 383.547 100.934 384.858 100.438 386.09C99.572 387.305 98.3733 388.244 96.9863 388.793C95.3688 389.504 93.8166 390.356 92.3475 391.337V391.397L92.2876 391.477C92.0673 391.761 91.9574 392.115 91.9784 392.474C91.9784 392.814 91.7888 393.711 92.138 393.891C92.4136 393.956 92.7004 393.956 92.976 393.891C93.4149 393.891 93.8538 393.811 94.2828 393.751C95.1607 393.652 104.638 391.906 106.254 391.227C106.942 390.938 107.252 390.23 107.122 389.232C107.002 388.271 106.712 387.338 106.264 386.479Z" fill="#10214F"/>
<path d="M138.107 382.149C138.027 381.68 137.229 377.111 136.162 370.906C135.593 370.906 134.995 370.906 134.476 370.906C133.359 370.906 130.126 370.906 130.126 370.906C130.356 371.455 133.588 378.079 134.715 380.693C134.975 381.271 135.204 381.88 135.484 382.448C135.663 382.808 135.873 383.097 136.262 383.127C136.651 383.157 136.212 383.506 136.601 383.476L137.06 383.366C137.147 383.176 137.274 383.008 137.432 382.872C137.591 382.736 137.777 382.635 137.978 382.578H138.147C138.146 382.434 138.133 382.291 138.107 382.149Z" fill="#DEFBFF"/>
<path d="M147.834 391.417C147.595 391.008 147.21 390.705 146.756 390.569C145.237 389.866 143.799 388.999 142.467 387.985C140.751 386.758 139.973 386.369 138.347 381.9C138.191 381.537 138.061 381.164 137.958 380.783C136.801 380.718 135.642 380.718 134.486 380.783C134.596 381.381 134.646 381.989 134.636 382.598C134.593 383.467 134.445 384.328 134.197 385.162C133.879 386.044 133.74 386.979 133.788 387.915C133.797 388.325 133.899 388.728 134.087 389.092C134.176 389.318 134.311 389.523 134.482 389.695C134.654 389.866 134.859 390.001 135.085 390.09C135.705 390.303 136.354 390.417 137.01 390.429C137.827 390.445 138.607 390.769 139.195 391.337C139.983 392.135 140.551 393.173 141.739 393.442C143.307 393.712 144.909 393.712 146.477 393.442C146.492 393.439 146.506 393.434 146.518 393.425C146.53 393.416 146.54 393.405 146.547 393.392C147.01 393.372 147.471 393.312 147.924 393.213C147.948 393.205 147.969 393.191 147.985 393.171C148.001 393.152 148.011 393.128 148.013 393.103C148.094 392.535 148.033 391.955 147.834 391.417Z" fill="#10214F"/>
<path d="M108.608 225.457C107.737 225.325 106.848 225.369 105.995 225.586C105.995 226.055 105.995 226.584 105.995 227.133C106 227.202 106 227.272 105.995 227.342C106.561 227.221 107.134 227.134 107.71 227.083C108.365 227.075 109.013 226.954 109.626 226.724C110.643 226.185 109.037 225.517 108.608 225.457Z" fill="#001127"/>
<path d="M127.184 231.742C126.44 231.071 125.938 230.173 125.757 229.188C125.493 228.348 125.106 227.551 124.61 226.824C123.509 225.273 122.252 223.839 120.859 222.544C119.495 221.192 117.938 220.049 116.24 219.152C113.247 217.646 109.037 217.067 106.134 219.152C105.858 219.353 105.663 219.647 105.586 219.98C105.396 220.579 104.957 220.768 104.408 220.978C103.86 221.187 103.171 221.456 102.952 222.125C102.857 222.404 102.85 222.705 102.93 222.989C103.011 223.273 103.175 223.525 103.402 223.714C103.629 223.902 103.908 224.016 104.202 224.043C104.495 224.069 104.79 224.005 105.047 223.861C105.047 224.3 105.536 224.619 105.975 224.679C106.897 224.679 107.793 224.37 108.519 223.801C108.778 223.642 109.052 223.508 109.337 223.402C109.795 223.262 110.105 223.551 110.474 223.781C110.747 223.963 111.042 224.11 111.352 224.22C111.113 224.68 111.049 225.212 111.172 225.716C111.282 226.205 111.681 226.524 111.821 226.993C111.96 227.462 111.471 228.051 111.402 228.629C111.372 228.931 111.45 229.234 111.621 229.485C111.792 229.736 112.046 229.918 112.337 230.001C112.629 230.085 112.941 230.063 113.219 229.939C113.496 229.816 113.721 229.6 113.856 229.328C113.988 229.529 114.177 229.687 114.399 229.781C114.621 229.875 114.866 229.902 115.103 229.856C115.456 229.749 115.783 229.569 116.061 229.326C116.34 229.084 116.564 228.785 116.719 228.45C117.073 228.754 117.331 229.154 117.46 229.603C117.589 230.051 117.585 230.528 117.447 230.974C117.341 231.503 117.411 232.053 117.647 232.54C117.875 232.972 118.228 233.326 118.661 233.554C119.094 233.781 119.585 233.873 120.071 233.817C120.077 234.221 120.198 234.614 120.421 234.952C120.643 235.289 120.957 235.556 121.325 235.722C121.694 235.887 122.102 235.944 122.502 235.886C122.901 235.828 123.276 235.657 123.582 235.393C123.693 235.291 123.796 235.181 123.891 235.064C124.025 234.867 124.218 234.718 124.443 234.641C124.668 234.564 124.912 234.561 125.138 234.635C125.494 234.79 125.878 234.87 126.266 234.87C126.654 234.87 127.038 234.79 127.393 234.635C127.656 234.497 127.876 234.291 128.031 234.038C128.186 233.785 128.269 233.495 128.271 233.198C128.241 232.5 127.692 232.121 127.184 231.742Z" fill="#001127"/>
<path d="M103.75 221.207C105.087 221.865 106.314 222.733 107.621 223.462C110.165 224.878 113.137 225.227 115.811 226.365C117.149 226.933 118.443 227.6 119.682 228.36C120.827 229.157 122.124 229.711 123.492 229.986C124.912 230.169 126.321 230.429 127.712 230.764C127.712 229.068 127.533 227.372 127.383 225.686C127.323 224.988 127.263 224.29 127.213 223.591C127.134 222.434 127.064 221.277 127.064 220.12C127.064 219.74 127.064 219.361 127.064 218.982C127.093 218.101 127.173 217.221 127.303 216.349C125.478 215.351 123.612 214.443 121.707 213.645C119.596 212.755 117.422 212.021 115.202 211.45C114.404 211.261 113.596 211.101 112.788 210.952C112.221 211.883 111.587 212.774 110.893 213.615C110.152 214.506 109.341 215.337 108.469 216.099L107.9 216.578C106.731 217.485 105.497 218.305 104.209 219.032C103.485 219.453 102.797 219.933 102.154 220.469L102.094 220.519C102.653 220.698 103.221 220.948 103.75 221.207Z" fill="#D1A38C"/>
<path d="M127.084 220.08C124.749 219.152 122.425 218.184 120.101 217.247L110.953 213.575C110.212 214.466 109.401 215.297 108.529 216.059L112.28 217.566C117.068 219.481 121.846 221.417 126.635 223.312L127.243 223.551C127.154 222.394 127.084 221.237 127.084 220.08Z" fill="#AD816C"/>
<path d="M131.044 244.69C129.891 243.635 128.599 242.742 127.204 242.037C126.571 241.763 125.896 241.601 125.208 241.558C124.654 241.477 124.087 241.564 123.582 241.807C123.295 242.136 123.047 242.498 122.844 242.885C122.555 243.274 122.246 243.653 121.926 244.022C121.394 244.629 120.828 245.205 120.23 245.748C119.272 246.602 118.237 247.367 117.138 248.032C116.326 246.644 115.658 245.176 115.143 243.653C115.013 243.264 114.923 242.845 114.774 242.456C114.714 242.296 114.654 242.107 114.464 242.067C114.075 241.977 113.467 242.605 113.167 242.815C112.625 243.169 112.173 243.647 111.849 244.208C111.525 244.77 111.337 245.4 111.302 246.047C111.337 247.065 111.584 248.065 112.027 248.982C112.47 249.899 113.1 250.714 113.876 251.374C115.193 251.993 116.699 252.075 118.076 251.604C121.597 250.756 125.059 249.748 128.58 248.781L131.204 248.042C131.733 247.893 132.541 247.793 132.87 247.284C133.618 246.197 131.683 245.199 131.044 244.69Z" fill="#01BBDC"/>
<path d="M139.085 269.85C139.314 265.67 140.162 261.46 139.554 257.28C139.105 254.168 138.057 250.746 135.563 248.671C134.907 248.256 134.204 247.921 133.469 247.673C133.329 247.613 133.219 247.813 133.349 247.873L133.728 248.082V248.272C133.703 248.275 133.681 248.285 133.662 248.302C133.644 248.318 133.631 248.34 133.626 248.364C133.621 248.388 133.623 248.413 133.632 248.436C133.641 248.459 133.657 248.478 133.678 248.491C135.304 249.708 134.785 252.063 133.798 253.479C132.81 254.896 131.234 256.253 130.216 257.879C128.221 261.121 127.363 264.932 125.468 268.244C121.926 274.459 116.21 279.586 114.265 286.649C113.97 287.437 113.97 288.305 114.265 289.093C114.571 289.681 115.077 290.141 115.691 290.39C117.218 290.929 118.883 290.929 120.41 290.39C122.266 289.871 123.991 288.994 125.817 288.395C126.759 288.07 127.737 287.862 128.73 287.777C129.748 287.738 130.767 287.755 131.783 287.826C133.508 288.02 135.245 287.581 136.671 286.589C137.882 285.548 138.733 284.152 139.105 282.599C139.523 280.631 139.587 278.604 139.294 276.613C139.046 274.368 138.976 272.106 139.085 269.85Z" fill="#01BBDC"/>
<path d="M112.728 242.964C112.709 242.6 112.585 242.249 112.371 241.953C112.156 241.658 111.862 241.43 111.521 241.298C110.89 240.846 110.223 240.446 109.526 240.101C108.588 239.662 107.331 238.894 106.344 239.622C105.871 240.046 105.476 240.549 105.177 241.109C104.808 241.755 104.475 242.421 104.179 243.104C103.411 244.497 102.843 245.992 102.493 247.543C102.443 248.398 102.313 249.247 102.104 250.077C101.755 250.906 101.246 251.658 100.608 252.292H100.528C100.398 252.222 100.278 252.412 100.408 252.481L100.508 252.531C100.508 252.591 100.588 252.641 100.648 252.611C101.196 252.91 101.745 253.19 102.314 253.439C102.953 253.751 103.621 254.002 104.309 254.187C104.788 254.287 105.077 253.748 105.306 253.429C105.745 252.861 106.005 249.868 106.154 249.16C106.173 249.069 106.21 248.984 106.264 248.91C107.262 248.91 108.568 249.489 109.117 248.451C109.199 248.3 109.249 248.133 109.265 247.962C109.28 247.79 109.261 247.617 109.207 247.454C109.362 247.484 109.521 247.484 109.676 247.454C109.87 247.409 110.05 247.315 110.197 247.181C110.344 247.046 110.453 246.875 110.514 246.685C110.554 246.492 110.553 246.293 110.51 246.1C110.467 245.907 110.383 245.726 110.264 245.568C110.943 245.808 111.671 245.828 111.831 245C111.887 244.733 111.866 244.456 111.771 244.201C111.916 244.187 112.058 244.143 112.186 244.072C112.314 244.001 112.426 243.905 112.516 243.789C112.605 243.673 112.67 243.54 112.707 243.399C112.744 243.257 112.751 243.109 112.728 242.964Z" fill="#FFA57A"/>
<path d="M111.671 243.573C110.634 242.808 109.528 242.14 108.369 241.578C108.239 241.508 108.12 241.708 108.259 241.777C109.418 242.342 110.523 243.01 111.561 243.773C111.731 243.862 111.791 243.663 111.671 243.573Z" fill="#DD6B4B"/>
<path d="M110.135 245.129C109.1 244.361 107.994 243.693 106.833 243.134C106.703 243.064 106.583 243.264 106.713 243.334C107.874 243.892 108.98 244.561 110.015 245.329C110.135 245.409 110.254 245.219 110.135 245.129Z" fill="#DD6B4B"/>
<path d="M108.738 246.855C107.705 246.089 106.603 245.421 105.446 244.86C105.306 244.79 105.187 244.99 105.326 245.06C106.487 245.621 107.592 246.289 108.628 247.055C108.738 247.145 108.868 246.945 108.738 246.855Z" fill="#DD6B4B"/>
<path d="M100.827 283.058C100.827 282.499 100.827 281.941 100.827 281.382C100.827 281.103 100.827 280.723 100.578 280.564C100.328 280.404 100.089 280.564 99.8694 280.564L97.964 280.853C95.2904 281.242 92.5969 281.561 89.9034 281.851C89.9034 281.711 89.654 281.771 89.674 281.911C89.6593 281.931 89.6515 281.955 89.6515 281.98C89.6515 282.006 89.6593 282.03 89.674 282.05C89.8076 282.876 90.1219 283.661 90.5944 284.351C91.0669 285.041 91.686 285.618 92.4074 286.041C93.1638 286.457 94.0187 286.66 94.8814 286.629C95.8938 286.461 96.8936 286.224 97.8742 285.921C98.4273 285.819 98.9878 285.762 99.5502 285.751C99.8594 285.751 100.318 285.831 100.548 285.622C100.777 285.412 100.757 285.123 100.757 284.844C100.847 284.255 100.837 283.656 100.827 283.058Z" fill="#FFA57A"/>
<path d="M107.262 255.454C106.945 254.022 107.081 252.527 107.651 251.175C107.331 251.085 102.573 250.177 101.515 249.778C101.399 250.265 101.236 250.74 101.027 251.195C100.378 252.352 100.029 252.092 98.9018 252.771C97.7549 253.324 96.8248 254.244 96.2582 255.385C95.6895 256.592 95.4102 257.918 94.8515 259.126L94.7618 259.305C92.4473 261.111 89.3648 263.226 89.4745 266.598C89.5344 268.214 89.9533 269.79 89.4745 271.346C88.9957 272.902 88.3173 274.109 87.9582 275.606C87.599 277.102 87.0703 279.167 87.7786 280.733C89.6042 284.724 94.1532 284.474 95.6995 284.724C98.8818 285.213 97.8942 282.489 99.9094 280.305C100.884 279.217 101.673 277.977 102.244 276.633C102.802 275.336 103.052 273.89 103.65 272.643C104.249 271.396 105.576 270.478 106.464 269.331C107.357 268.152 107.977 266.789 108.279 265.341C109.017 262.039 107.74 258.776 107.262 255.454Z" fill="#01BBDC"/>
<path d="M107.591 259.694C107.431 258.407 106.653 257.28 106.404 256.003C106.184 254.515 106.184 253.002 106.404 251.514C106.404 251.364 106.184 251.374 106.174 251.514C106.008 252.774 105.971 254.048 106.064 255.315C106.258 256.44 106.593 257.536 107.062 258.577C107.81 260.572 107.062 262.408 106.064 264.164C105.03 265.639 104.304 267.309 103.93 269.072C103.8 270.289 104.119 271.496 104.069 272.723C103.992 273.748 103.606 274.725 102.962 275.526C101.795 277.112 100.109 278.409 99.6599 280.414C99.6599 280.554 99.8495 280.614 99.8794 280.474C100.308 278.599 101.875 277.342 102.982 275.885C103.519 275.246 103.917 274.502 104.149 273.701C104.339 272.534 104.339 271.345 104.149 270.179C104.039 268.034 105.147 266.278 106.144 264.493C106.942 263.036 107.81 261.44 107.591 259.694Z" fill="#DEFBFF"/>
<path d="M131.523 253.629C129.523 255.763 127.996 258.294 127.04 261.058C126.084 263.822 125.722 266.757 125.976 269.67C126.22 271.076 126.162 272.518 125.807 273.9C125.218 275.576 123.602 276.165 122.086 276.773C120.481 277.458 118.809 277.976 117.098 278.319C115.248 278.638 113.358 278.659 111.501 278.379C109.875 278.14 108.209 277.621 106.513 277.87C105.726 278.021 104.98 278.341 104.329 278.808C103.655 279.434 102.763 279.771 101.845 279.746C101.695 279.746 101.635 279.936 101.775 279.965C103.122 280.205 104.089 279.137 105.187 278.549C106.813 277.691 108.688 278.11 110.404 278.429C113.845 279.089 117.402 278.781 120.679 277.541C122.151 277.132 123.548 276.493 124.819 275.646C125.288 275.224 125.66 274.706 125.911 274.128C126.162 273.55 126.287 272.924 126.276 272.294C126.346 270.817 126.076 269.301 126.066 267.855C126.059 266.256 126.243 264.661 126.615 263.106C127.431 259.619 129.152 256.409 131.603 253.798C131.611 253.782 131.615 253.765 131.615 253.747C131.616 253.729 131.612 253.711 131.604 253.694C131.596 253.678 131.585 253.664 131.571 253.652C131.557 253.641 131.541 253.633 131.523 253.629Z" fill="#DEFBFF"/>
<path d="M122.066 288.355C118.544 289.109 114.909 289.177 111.362 288.555C109.691 288.252 108.049 287.808 106.454 287.228C104.943 286.538 103.296 286.197 101.635 286.23C101.495 286.23 101.485 286.47 101.635 286.46C103.412 286.46 105.168 286.844 106.783 287.587C111.704 289.342 117.018 289.688 122.126 288.585C122.275 288.545 122.216 288.305 122.066 288.355Z" fill="#DEFBFF"/>
<path d="M129.009 248.002C123.656 250.111 118.873 253.446 115.043 257.739C114.943 257.849 115.103 258.018 115.202 257.898C119.008 253.632 123.761 250.318 129.079 248.222C129.209 248.172 129.149 247.942 129.009 248.002Z" fill="#DEFBFF"/>
<path d="M126.844 292.745C120.293 295.369 113.211 296.395 106.184 295.737C104.168 295.544 102.168 295.21 100.199 294.74C100.169 294.732 100.138 294.736 100.112 294.751C100.086 294.766 100.067 294.79 100.059 294.819C100.051 294.849 100.055 294.88 100.07 294.906C100.085 294.932 100.11 294.951 100.139 294.959C107.031 296.589 114.212 296.555 121.088 294.859C123.072 294.363 125.019 293.73 126.914 292.964C127.044 292.914 126.984 292.685 126.844 292.745Z" fill="#DEFBFF"/>
<path d="M111.452 320.228C109.336 314.279 106.306 308.696 102.473 303.678C102.383 303.559 102.184 303.678 102.274 303.798C106.095 308.776 109.117 314.32 111.232 320.228C111.282 320.408 111.501 320.348 111.452 320.228Z" fill="#DEFBFF"/>
<path d="M41.8093 392.185C42.0333 391.618 42.1121 391.004 42.0388 390.399C41.7894 389.462 40.7918 389.033 39.9638 388.713C36.4423 387.337 32.8908 386.02 29.3593 384.723C29.4292 384.493 29.509 384.264 29.5888 384.035C29.6686 383.805 29.3893 383.815 29.3394 383.975C28.7674 385.578 28.252 387.2 27.7931 388.843C27.6054 389.278 27.5737 389.764 27.7033 390.22C27.9128 390.639 28.3717 390.728 28.7807 390.838C29.398 391.084 30.0456 391.245 30.7061 391.317C31.1151 391.317 31.3046 391.038 31.4742 390.699C31.574 390.509 31.6438 390.22 31.8134 390.09C32.6913 389.412 32.811 390.529 32.811 390.898C32.811 391.048 32.811 391.187 32.811 391.337C32.8335 391.529 32.9115 391.711 33.0355 391.86C33.1595 392.009 33.3241 392.118 33.5093 392.175C34.163 392.394 34.8292 392.574 35.5045 392.714L38.0185 393.362L40.4027 393.981C40.7319 394.07 41.0711 394.2 41.3205 393.891C41.5877 393.357 41.7534 392.779 41.8093 392.185Z" fill="#10214F"/>
<path d="M69.712 392.055C69.7797 391.487 69.7043 390.911 69.4926 390.379C69.0536 389.581 68.0361 389.382 67.2081 389.332C63.6766 388.913 60.1251 388.544 56.5837 388.155C56.5837 387.925 56.5837 387.706 56.6335 387.476C56.6834 387.247 56.4041 387.317 56.3941 387.476C56.2545 389.073 56.1647 390.679 56.1347 392.285C56.0657 392.722 56.1503 393.17 56.3742 393.552C56.5274 393.684 56.7077 393.781 56.9024 393.836C57.0972 393.891 57.3016 393.903 57.5014 393.871C58.1238 393.955 58.7546 393.955 59.3769 393.871C59.746 393.761 59.8558 393.472 59.9356 393.123C59.9471 392.902 60.0013 392.685 60.0952 392.484C60.7237 391.666 61.0928 392.644 61.2424 392.983C61.2424 393.113 61.2424 393.252 61.3123 393.392C61.3747 393.562 61.4872 393.71 61.635 393.815C61.7828 393.92 61.959 393.978 62.1403 393.981C62.7881 394.021 63.4378 394.021 64.0856 393.981H68.8341C69.1534 393.981 69.4926 393.981 69.6422 393.681C69.7593 393.148 69.7829 392.597 69.712 392.055Z" fill="#10214F"/>
<path d="M61.0929 362.696C60.9432 361.968 59.9357 361.958 59.4069 361.868C57.6394 361.549 55.8459 361.395 54.0499 361.409C53.9002 360.182 53.7406 358.955 53.591 357.728C53.591 357.578 53.3316 357.538 53.3515 357.728L53.8204 361.449C53.2418 361.449 52.6732 361.449 52.1045 361.529C51.9549 361.529 52.0347 361.778 52.1744 361.758C52.733 361.758 53.2917 361.698 53.8503 361.688C54.828 369.443 55.8023 377.194 56.7733 384.942C56.7747 384.97 56.7839 384.997 56.7997 385.02C56.8156 385.043 56.8375 385.061 56.8631 385.072L59.5865 385.81C59.5999 385.813 59.6137 385.813 59.627 385.81C59.6403 385.807 59.6528 385.801 59.6634 385.792C59.6739 385.784 59.6824 385.773 59.6881 385.76C59.6938 385.748 59.6966 385.734 59.6963 385.721L60.5043 372.393C60.634 370.188 60.7737 367.983 60.9033 365.779C60.9033 365.23 60.9732 364.681 61.0031 364.133C61.0969 363.66 61.1271 363.177 61.0929 362.696Z" fill="#FFA57A"/>
<path d="M43.4454 360.461C43.5551 359.733 42.5774 359.524 42.0886 359.324C40.4479 358.659 38.7477 358.151 37.0109 357.808L37.8788 354.196C37.8788 354.057 37.6992 353.967 37.6593 354.117L36.7814 357.768C36.2128 357.658 35.6442 357.568 35.0656 357.499C34.9259 357.499 34.9159 357.708 35.0656 357.728C35.6242 357.798 36.1729 357.888 36.7315 357.997L31.2547 380.772C31.2466 380.803 31.249 380.835 31.2617 380.864C31.2744 380.893 31.2966 380.917 31.3246 380.932L33.7288 382.189C33.7443 382.212 33.768 382.229 33.7952 382.235C33.8223 382.241 33.8509 382.237 33.875 382.223C33.8991 382.209 33.917 382.186 33.9251 382.16C33.9331 382.133 33.9307 382.104 33.9183 382.079L39.4849 369.52L42.2482 363.295L42.9366 361.738C43.1572 361.335 43.328 360.906 43.4454 360.461Z" fill="#FFA57A"/>
<path d="M67.9064 229.776C67.8466 228.081 67.8166 226.714 67.7568 225.537C67.7568 225.487 67.7568 225.447 67.7568 225.397C67.7568 224.868 67.6869 224.399 67.6271 223.931V223.611V223.551C67.4475 222.015 67.5174 220.559 66.8091 219.441C66.4001 218.783 65.5521 218.504 64.7041 217.696C64.6243 217.616 63.936 217.426 63.916 217.506C63.5196 217.199 63.0595 216.984 62.5693 216.877C61.481 216.547 60.3542 216.359 59.2174 216.319C56.9771 216.33 54.8174 217.156 53.142 218.643C49.9896 221.636 50.5283 229.387 52.1444 232.889C53.142 235.014 53.8503 234.056 55.646 235.642C57.292 237.089 58.2098 238.116 60.2848 238.944C61.9831 239.391 63.7367 239.593 65.4922 239.543C66.4898 239.423 66.9587 239.383 67.4874 238.665C68.0162 237.947 67.9363 230.604 67.9064 229.776Z" fill="#FFA57A"/>
<path d="M61.5218 231.442C59.8558 231.951 58.3494 230.884 57.0226 230.016C55.9792 229.249 54.7342 228.805 53.4412 228.739L53.5011 228.41C53.5077 228.378 53.5014 228.345 53.4837 228.318C53.4659 228.291 53.4381 228.272 53.4063 228.265C53.3746 228.258 53.3415 228.265 53.3144 228.282C53.2872 228.3 53.2683 228.328 53.2617 228.36C53.2617 228.489 53.2617 228.619 53.1918 228.749H52.9823C52.9506 228.749 52.9201 228.761 52.8977 228.784C52.8752 228.806 52.8626 228.837 52.8626 228.869C52.8626 228.9 52.8752 228.931 52.8977 228.953C52.9201 228.976 52.9506 228.988 52.9823 228.988H53.132C52.1328 234.687 51.4369 240.434 51.047 246.207C51.047 246.277 51.047 246.366 51.1667 246.356C53.1426 246 55.1619 245.953 57.1523 246.217C57.6311 246.287 58.4492 246.586 58.8382 246.147C59.0138 245.879 59.1138 245.569 59.1275 245.249L59.4069 243.733L61.6215 231.572C61.6245 231.542 61.6158 231.512 61.5973 231.487C61.5787 231.463 61.5517 231.447 61.5218 231.442Z" fill="#FFA57A"/>
<path d="M69.6722 251.075C69.2831 248.471 67.1183 246.436 64.9735 244.94C64.6143 244.68 64.2552 244.441 63.906 244.221H63.8462C61.0268 242.441 57.835 241.335 54.5187 240.989C54.5103 240.981 54.5002 240.974 54.4891 240.969C54.4779 240.964 54.4659 240.962 54.4538 240.962C54.4417 240.962 54.4297 240.964 54.4186 240.969C54.4074 240.974 54.3974 240.981 54.389 240.989H54.3291L53.4712 240.919C53.3116 240.919 53.3116 241.159 53.4712 241.169H53.8403L47.326 243.882C46.8472 244.082 46.3284 244.311 45.7199 244.571C45.1113 244.83 44.7223 245.02 44.2434 245.269C43.054 245.823 41.9213 246.491 40.8616 247.264C37.5196 249.858 39.2455 253.589 40.0535 257.19C40.4226 258.826 40.7718 260.472 41.0511 262.118C41.4402 264.114 41.7893 266.019 42.0986 267.984C42.0986 268.254 42.1884 268.523 42.2283 268.792C42.2682 269.062 42.3181 269.341 42.358 269.62C42.3979 269.9 42.4577 270.249 42.4976 270.558C42.5375 270.867 42.4976 270.917 42.5774 271.097L42.7271 272.094C43.0729 274.681 43.3655 277.269 43.605 279.856C43.7147 281.093 43.8145 282.34 43.8943 283.587C43.8578 284.001 43.9063 284.418 44.0366 284.812C44.167 285.207 44.3766 285.57 44.6524 285.881C45.4206 286.5 46.6476 286.27 47.5554 286.23C48.972 286.17 50.3886 286.091 51.7952 285.991C54.7082 285.785 57.6046 285.485 60.4843 285.093C60.5124 285.093 60.5399 285.084 60.563 285.068C60.5862 285.052 60.6039 285.029 60.614 285.003C61.4121 282.669 62.1902 280.315 62.9484 277.96C64.5844 272.813 66.0908 267.625 67.4675 262.398C67.9762 260.472 68.4651 258.537 68.924 256.602C69.5278 254.825 69.7818 252.948 69.6722 251.075Z" fill="#FFA57A"/>
<path d="M53.5111 272.503C50.229 272.683 47.0766 273.022 43.7945 273.202C44.5427 268.942 43.7945 262.956 45.2011 258.936C45.8794 256.941 48.4532 256.771 49.0318 254.776C49.3556 253.912 49.4595 252.981 49.3341 252.067C49.2087 251.152 48.858 250.284 48.3136 249.539C48.1954 249.389 48.0688 249.245 47.9345 249.11C47.8424 249.276 47.7129 249.418 47.5562 249.525C47.3995 249.631 47.22 249.7 47.032 249.725C46.8439 249.751 46.6526 249.732 46.4733 249.67C46.294 249.608 46.1316 249.505 45.9992 249.369C44.6823 248.372 45.3308 246.376 44.2135 245.249C35.9135 248.262 37.6692 256.382 36.9111 262.368C36.414 266.465 36.2971 270.599 36.5619 274.718C36.6617 276.214 36.5619 278.13 38.0383 279.457C38.6405 279.975 39.342 280.366 40.1002 280.604C40.8583 280.843 41.6571 280.924 42.4477 280.843C47.2561 280.205 52.3538 277.172 54.6284 276.853C54.0198 274.389 54.1695 274.977 53.5111 272.503Z" fill="#FFA57A"/>
<path d="M61.5617 250.905C62.0431 249.672 62.5926 248.466 63.2077 247.294C63.6046 246.382 64.2093 245.576 64.9735 244.94C64.6143 244.68 64.2552 244.441 63.906 244.221H63.8462C61.1843 247.808 59.4131 251.976 58.6786 256.382C57.7509 261.27 57.9204 266.298 56.9129 271.167C56.5032 273.605 55.5855 275.929 54.2194 277.99C53.5649 278.992 52.5857 279.739 51.446 280.105C50.8145 280.24 50.1595 280.22 49.5374 280.046C48.9154 279.872 48.3448 279.55 47.8747 279.107C45.9393 277.431 45.5203 274.698 45.0215 272.324C44.3586 269.502 43.9084 266.634 43.6748 263.744C43.2558 257.31 44.5227 250.935 45.7697 244.65C45.7752 244.628 45.7733 244.604 45.7644 244.582C45.7554 244.561 45.7398 244.543 45.7198 244.531C45.241 244.75 44.7222 244.98 44.2434 245.229C43.6382 248.361 43.0263 251.501 42.4078 254.646V254.726C41.5389 259.079 41.4511 263.551 42.1485 267.934C42.1485 268.204 42.2382 268.473 42.2781 268.742C42.318 269.012 42.3679 269.291 42.4078 269.57C42.4477 269.85 42.5076 270.199 42.5475 270.508C42.5874 270.817 42.5475 270.867 42.6273 271.047L42.7769 272.044C43.1228 274.632 43.4154 277.219 43.6548 279.806C43.7646 281.043 43.8643 282.29 43.9441 283.537C43.9077 283.951 43.9561 284.368 44.0865 284.762C44.2169 285.157 44.4264 285.52 44.7023 285.831C45.4704 286.45 46.6975 286.22 47.6053 286.18C49.0219 286.12 50.4385 286.041 51.8451 285.941C54.7581 285.735 57.6544 285.435 60.5342 285.043C60.5623 285.043 60.5897 285.034 60.6129 285.018C60.636 285.002 60.6538 284.98 60.6638 284.953C61.4619 282.619 62.24 280.265 62.9982 277.91V277.641C63.2973 275.346 63.3675 273.027 63.2077 270.718C62.9483 268.533 61.6215 266.787 60.8933 264.732C60.1399 262.636 59.8011 260.413 59.8957 258.188C60.0626 255.687 60.6249 253.229 61.5617 250.905Z" fill="#10214F"/>
<path d="M72.4056 376.583C72.4056 376.642 72.4056 376.712 72.3059 376.702C71.3083 376.613 69.3131 376.543 67.0984 376.493H66.8391C64.3351 376.433 61.5019 376.403 59.1975 376.373H58.9481C56.6835 376.373 54.9577 376.323 54.7083 376.293C54.1324 376.316 53.5574 376.231 53.0124 376.044C52.0746 375.565 51.3663 361.918 50.8476 359.085C50.3288 356.252 49.6106 353.289 49.0519 350.376C48.9522 349.847 48.8624 349.308 48.7726 348.78C48.6828 349.957 48.583 351.134 48.4733 352.321C47.785 360.003 46.6976 368.552 45.4805 376.174C45.4805 376.223 45.4207 376.263 45.3708 376.263C44.6026 376.263 43.1761 376.174 41.3804 376.124H41.151C38.3178 376.044 34.6666 375.974 31.5042 375.944H31.2847C28.2121 375.944 25.6284 375.944 24.7505 376.024C24.7254 376.021 24.7017 376.011 24.6823 375.995C24.6628 375.979 24.6483 375.958 24.6407 375.934C23.6531 369.38 26.2469 363.125 27.9328 357.02C28.7269 354.124 29.2348 351.157 29.4492 348.161C29.6586 345.258 29.6986 342.345 30.0178 339.452C30.2483 336.65 30.9217 333.903 32.013 331.312C33.1702 328.748 34.8162 323.59 35.1055 314.402C35.4746 302.731 37.3202 295.448 39.9738 289.951C43.0863 283.487 43.5751 281.422 43.7347 280.504L47.8748 280.654H48.1242L51.4461 280.774H51.6856L53.7606 280.843H53.99H54.9876L58.4792 280.973H58.7186L60.9333 281.053C61.1328 281.053 61.8611 280.873 61.9309 281.053C61.6272 282.764 61.4405 284.494 61.3722 286.23C62.5095 290.71 65.2828 304.008 66.0111 308.547C67.0086 314.383 65.5721 318.393 66.0111 324.239C66.1721 327.261 66.5859 330.264 67.2481 333.217C67.9165 336.02 68.8043 338.774 69.4029 341.587C69.9324 344.411 70.1664 347.283 70.1012 350.156C70.1051 353.102 70.2984 356.044 70.6798 358.965C71.428 364.901 72.6451 370.757 72.4056 376.583Z" fill="#01BBDC"/>
<path d="M68.3952 388.883C67.7468 388.713 67.0784 388.703 66.4 388.584C65.5754 388.431 64.7596 388.235 63.9559 387.995C63.0996 387.781 62.2673 387.48 61.4719 387.097C60.5741 386.618 60.1252 385.102 60.0254 384.224C59.8758 382.817 59.8558 381.311 59.766 379.905C58.519 379.605 57.7708 379.426 56.4939 379.037C56.5942 380.698 56.5942 382.363 56.4939 384.025C56.3941 384.942 56.0051 385.86 55.9951 386.798C55.9851 387.736 56.0649 389.102 57.1124 389.711C58.2369 390.174 59.4491 390.385 60.6639 390.329L65.2628 390.748C66.0146 390.833 66.7708 390.873 67.5273 390.868C68.1073 390.925 68.6922 390.829 69.2232 390.589C69.9714 390.06 69.0736 389.062 68.3952 388.883Z" fill="#FFA57A"/>
<path d="M41.3604 388.474C40.7618 388.135 40.0835 387.945 39.4649 387.646C38.6843 387.286 37.9279 386.876 37.2004 386.419C36.4244 385.98 35.6985 385.458 35.0356 384.863C34.3074 384.144 34.5767 382.439 34.8461 381.531C35.1154 380.623 35.5045 378.847 35.7738 377.83C34.8315 377.994 33.8773 378.081 32.9207 378.089C32.392 378.997 31.8134 379.895 31.2448 380.733C30.593 381.594 30.0252 382.516 29.5488 383.486C29.1099 384.533 28.6909 385.411 29.5488 386.309C30.4068 387.207 31.8533 387.466 32.9207 387.855L37.4598 389.501C38.1997 389.786 38.9559 390.026 39.7243 390.22C40.3146 390.435 40.9504 390.493 41.5699 390.389C42.4877 390.06 41.9789 388.823 41.3604 388.474Z" fill="#FFA57A"/>
<path d="M41.3405 387.786L38.9662 386.848C38.5871 386.708 37.9686 386.309 37.5995 386.499C37.1086 386.804 36.6899 387.213 36.3725 387.696C35.9627 388.241 35.6272 388.838 35.3749 389.471C35.315 389.631 35.5445 389.761 35.6043 389.601C35.6642 389.442 35.7539 389.262 35.8338 389.092C36.5021 389.461 37.1805 389.801 37.8788 390.09C38.374 390.401 38.9164 390.631 39.485 390.768C39.8441 390.768 39.9738 390.369 40.1334 390.11C40.5723 389.392 41.0113 388.673 41.4402 387.955C41.4494 387.919 41.444 387.882 41.4253 387.85C41.4066 387.818 41.3761 387.795 41.3405 387.786Z" fill="#DEFBFF"/>
<path d="M67.5373 388.474L65.163 388.185C64.7839 388.135 64.1654 387.915 63.8262 388.185C63.452 388.582 63.1664 389.055 62.9883 389.571C62.7342 390.167 62.563 390.795 62.4795 391.437C62.4795 391.586 62.689 391.656 62.7189 391.497C62.7383 391.322 62.7683 391.149 62.8087 390.978C63.507 391.147 64.2053 391.307 64.9136 391.437C65.444 391.597 65.9958 391.674 66.5497 391.666C66.8689 391.586 66.8988 391.187 66.9786 390.908C67.2081 390.16 67.4375 389.402 67.657 388.643C67.6869 388.544 67.6171 388.484 67.5373 388.474Z" fill="#DEFBFF"/>
<path d="M34.9159 382.329C34.8161 382.329 34.5068 382.199 34.3971 382.169L33.609 381.94L32.4219 381.611C31.9701 381.539 31.5259 381.425 31.0951 381.271C30.706 381.072 31.0153 380.543 31.2447 380.164L33.7986 380.882C34.2394 380.939 34.6695 381.06 35.0755 381.241C35.3448 381.441 35.2451 382.239 34.9159 382.329Z" fill="#10214F"/>
<path d="M60.1251 384.075C60.0354 384.124 59.7161 384.075 59.6064 384.075H58.8582H57.681C57.2528 384.109 56.8224 384.109 56.3941 384.075C55.9851 383.985 56.1447 383.426 56.2644 383.027L58.7584 383.077C59.1753 383.017 59.5986 383.017 60.0154 383.077C60.3047 383.197 60.4045 383.945 60.1251 384.075Z" fill="#10214F"/>
<path d="M66.2903 233.487C66.0908 233.487 66.1108 234.056 66.2903 234.156C66.7578 234.361 67.2461 234.515 67.7468 234.615H67.8765C67.9364 234.066 67.8765 233.487 67.9264 232.929C67.4118 233.195 66.8604 233.383 66.2903 233.487Z" fill="#DEFBFF"/>
<path d="M69.333 229.776C68.895 228.543 68.2801 227.381 67.5074 226.325C67.4177 226.205 67.1982 226.325 67.288 226.444L67.4875 226.744C67.3279 228.2 67.1982 229.667 67.1084 231.133C67.1084 231.412 66.9687 231.812 67.298 231.981C67.7421 232.076 68.2048 232.035 68.6248 231.861C69.6323 231.502 69.6124 230.584 69.333 229.776Z" fill="#FFA57A"/>
<path d="M67.0585 219.022C67.0585 217.356 65.8814 216.389 64.365 215.57C62.4895 214.573 60.3746 215.132 58.3794 215.181C56.3842 215.231 48.6928 216.179 48.3037 224.499C47.9546 231.841 50.2989 230.983 51.2267 232.33C51.7667 232.963 52.2105 233.672 52.5435 234.435H53.0223C53.1473 234.622 53.3126 234.778 53.506 234.892C53.6994 235.006 53.916 235.075 54.1397 235.093C55.4864 235.213 57.9904 233.577 58.8782 232.659C59.3443 232.158 59.71 231.572 59.9556 230.933C60.286 230.099 60.7111 229.306 61.2226 228.569C61.7014 227.871 60.7936 228.759 61.2226 227.931C61.9155 227.832 62.566 227.538 63.0981 227.083C63.4893 226.13 63.7186 225.118 63.7764 224.09C63.8762 223.222 63.9161 221.097 64.8339 220.768C67.0585 219.93 67.0685 219.471 67.0585 219.022Z" fill="#001127"/>
<path d="M67.6171 223.91V223.591V223.531C67.0133 223.527 66.4211 223.697 65.9112 224.02C65.4124 224.359 64.9136 225.297 65.7416 225.576C66.1774 225.635 66.6209 225.594 67.0385 225.457C67.2779 225.457 67.5074 225.367 67.7468 225.347C67.7169 224.848 67.677 224.359 67.6171 223.91Z" fill="#001127"/>
<path d="M62.5793 228.858C62.3427 228.444 61.9526 228.14 61.4934 228.011C61.0342 227.883 60.5427 227.94 60.1252 228.17C59.6929 228.47 59.3735 228.906 59.218 229.409C59.0624 229.912 59.0798 230.452 59.2673 230.943C59.4768 231.632 60.1153 232.939 61.0231 232.35C62.2202 231.532 61.7513 229.866 62.1104 228.699C62.2041 228.789 62.2878 228.89 62.3598 228.998C62.4496 229.128 62.6691 228.998 62.5793 228.858Z" fill="#FFA57A"/>
<path d="M62.3199 231.891C61.1228 231.771 61.5218 229.896 60.9931 229.148C60.9133 229.028 60.7038 229.148 60.7936 229.267C61.3921 230.125 60.8734 231.991 62.3199 232.131C62.4695 232.141 62.4695 231.901 62.3199 231.891Z" fill="#DD6B4B"/>
<path d="M67.5873 227.582C67.5873 228.3 67.2381 228.878 66.8091 228.878C66.3802 228.878 66.031 228.3 66.031 227.582C66.031 226.863 66.3802 226.275 66.8091 226.275C67.2381 226.275 67.5873 226.853 67.5873 227.582Z" fill="#001127"/>
<path d="M48.154 280.684C43.3793 293.483 40.4861 306.907 39.5647 320.538C39.1257 327.092 39.5647 333.885 37.7091 340.26C36.7714 343.482 35.0655 346.395 33.9183 349.538C32.8447 352.719 32.207 356.031 32.0228 359.384C31.6138 364.851 31.524 370.357 31.564 375.874H31.3445C31.3445 373.43 31.3445 370.986 31.4143 368.542C31.5041 364.711 31.5739 360.84 32.0228 357.03C32.3679 353.812 33.1742 350.66 34.4171 347.672C35.7738 344.52 37.2902 341.507 38.0084 338.135C38.6446 334.76 38.9784 331.334 39.006 327.9C39.1257 324.578 39.2554 321.266 39.5347 317.924C40.626 305.187 43.4348 292.657 47.8846 280.674L48.154 280.684Z" fill="#DEFBFF"/>
<path d="M51.7154 280.813C50.0935 287.56 49.2236 294.466 49.1216 301.404C48.8623 308.387 48.8722 315.37 48.1939 322.353C47.8549 325.82 47.3153 329.264 46.5778 332.668C45.7996 336.3 44.8619 339.891 44.0538 343.502C43.2263 347.091 42.6364 350.73 42.2881 354.396C41.9788 357.967 41.8891 361.569 41.8192 365.16C41.7494 368.751 41.6995 372.423 41.4401 376.034H41.2107C41.5399 371.395 41.5299 366.726 41.6596 362.068C41.6951 354.903 42.6268 347.772 44.4329 340.839C45.2609 337.297 46.1588 333.776 46.8471 330.204C47.5116 326.619 47.9679 322.998 48.2138 319.36C49.1316 306.501 48.2138 293.313 51.476 280.763L51.7154 280.813Z" fill="#DEFBFF"/>
<path d="M59.2274 376.363H58.978C58.6521 374.328 58.2464 372.306 57.7609 370.298C56.8631 366.557 55.8355 362.846 55.1572 359.045C53.8238 351.471 53.5652 343.746 54.389 336.1C54.9502 332.245 55.2336 328.354 55.237 324.458C55.0873 320.568 54.2394 316.747 53.7306 312.896C53.2371 309.004 52.9673 305.087 52.9226 301.164C52.8228 294.391 53.2717 287.617 53.7905 280.863H54.0199C53.2987 288.642 53.0389 296.457 53.2418 304.267C53.4042 308.204 53.7973 312.128 54.419 316.019C55.1337 319.783 55.4679 323.61 55.4165 327.441C55.2569 331.362 54.5885 335.252 54.3092 339.163C54.0399 342.982 54.0399 346.816 54.3092 350.635C54.5863 354.558 55.1498 358.456 55.9952 362.297C56.8431 366.098 57.9305 369.839 58.6986 373.66C58.9181 374.528 59.0877 375.435 59.2274 376.363Z" fill="#DEFBFF"/>
<path d="M67.0984 376.493H66.839C66.2604 374.218 65.6519 371.954 65.0733 369.699C64.1165 366.121 63.3868 362.486 62.8885 358.815C62.4647 354.783 62.3646 350.723 62.5893 346.675C62.7389 342.624 62.9983 338.584 62.9384 334.534C62.8359 330.476 62.4324 326.431 61.7313 322.433C61.0829 318.443 60.3048 314.532 59.7361 310.552C59.2291 306.753 58.9958 302.922 59.0378 299.089C59.0877 293.104 59.4768 286.978 58.4193 281.063H58.6587C59.8758 287.816 59.1775 294.78 59.2772 301.603C59.387 309.654 61.2724 317.455 62.3997 325.396C62.958 329.338 63.2082 333.317 63.1479 337.297C63.0781 341.387 62.7888 345.468 62.709 349.558C62.5987 353.601 62.8692 357.646 63.517 361.639C64.1555 365.36 65.1132 369.011 66.0609 372.662C66.4333 373.932 66.7792 375.209 67.0984 376.493Z" fill="#DEFBFF"/>
<path d="M72.8246 287.108L72.7348 286.729C72.5354 285.599 72.1404 284.512 71.5676 283.517C70.946 282.719 70.1467 282.076 69.2333 281.641L68.8641 281.432C67.5673 280.674 66.2205 279.965 64.8738 279.317L64.3949 279.077C63.3973 278.599 62.2601 277.99 61.1328 278.529C60.6272 278.792 60.1435 279.096 59.6863 279.437C59.4369 279.616 59.1974 279.776 58.958 279.925L58.7685 280.045C57.205 280.948 55.7943 282.093 54.5885 283.437C54.1331 278.37 54.3141 273.266 55.1272 268.244C56.0312 262.964 57.8905 257.893 60.614 253.28C62.1772 250.662 64.0643 248.252 66.2305 246.107C66.2745 246.064 66.3095 246.013 66.3335 245.956C66.3574 245.9 66.3697 245.839 66.3697 245.778C66.3697 245.716 66.3574 245.656 66.3335 245.599C66.3095 245.542 66.2745 245.491 66.2305 245.449C66.1877 245.404 66.1365 245.369 66.08 245.346C66.0234 245.322 65.9627 245.309 65.9013 245.309C65.8399 245.309 65.7791 245.322 65.7226 245.346C65.666 245.369 65.6148 245.404 65.5721 245.449C58.1998 252.731 53.8902 263.306 53.4413 275.217C53.3505 278.339 53.4505 281.464 53.7406 284.574C53.512 284.974 53.3629 285.415 53.3016 285.871C52.8027 290.198 53.0014 294.576 53.8902 298.84C54.0902 300.161 54.4245 301.458 54.8878 302.711C55.0191 303.181 55.2858 303.602 55.6549 303.921C56.0239 304.24 56.4788 304.444 56.9628 304.506C57.3734 304.555 57.7865 304.578 58.1998 304.576C58.8483 304.576 59.4967 304.576 60.1352 304.486L61.023 304.436C62.4097 304.357 63.8163 304.247 65.193 304.107C66.5697 303.968 67.9164 303.788 69.2632 303.578C69.9216 303.479 70.6 303.369 71.2584 303.239C71.5052 303.213 71.744 303.137 71.9602 303.015C72.1764 302.894 72.3654 302.729 72.5153 302.531C72.7435 302.139 72.8895 301.704 72.9443 301.254C72.9443 301.174 72.9443 301.084 72.9443 301.005C73.0939 300.306 73.2137 299.588 73.3134 298.86C73.4899 297.594 73.5865 296.317 73.6027 295.039C73.6774 292.373 73.416 289.709 72.8246 287.108Z" fill="#10214F"/>
<path d="M84.716 270.997C84.7204 270.978 84.7197 270.959 84.7141 270.94C84.7084 270.922 84.6979 270.905 84.6838 270.892C84.6696 270.879 84.6522 270.869 84.6333 270.865C84.6144 270.861 84.5948 270.862 84.5763 270.867C79.708 272.334 74.311 273.521 69.6123 275.377C69.8218 271.765 69.9416 268.154 70.0812 264.553C70.2009 261.829 70.3705 259.106 70.3705 256.382C70.3855 255.015 70.3055 253.648 70.1311 252.292C70.0637 251.447 69.7671 250.637 69.2732 249.948C68.515 249.02 67.3777 249.02 66.2804 249.17C65.373 249.289 64.4782 249.489 63.6068 249.768C63.3853 250.359 63.0832 250.916 62.709 251.424C62.5964 251.607 62.4426 251.761 62.2601 251.873C60.6539 260.153 60.7038 268.643 60.9432 277.033C60.9432 278.788 61.1328 280.664 62.3798 282.021C63.4315 283.137 64.8457 283.844 66.3702 284.016C70.3605 284.544 73.7224 282.18 76.6354 279.975C78.7503 278.389 80.8652 276.783 82.9702 275.187C83.6685 274.658 84.7758 274.13 84.7359 273.192C84.6165 272.466 84.6098 271.725 84.716 270.997Z" fill="#FFA57A"/>
<path d="M94.0634 262.976C94.1272 262.714 94.1344 262.442 94.0845 262.177C94.0346 261.912 93.9288 261.661 93.7741 261.44C92.9261 260.373 92.557 262.727 92.4273 263.086C92.0941 263.817 91.566 264.441 90.901 264.892C90.4454 265.256 89.9654 265.59 89.4644 265.889C88.857 265.902 88.2503 265.839 87.6588 265.7C87.9182 265.39 88.1775 265.091 88.4669 264.802C88.7938 264.483 89.1476 264.192 89.5243 263.934C89.8128 263.785 90.0838 263.604 90.3324 263.395C90.5319 263.196 90.7314 262.797 90.462 262.567C90.1927 262.338 89.215 262.787 88.8659 262.976C88.1077 263.385 87.3595 263.824 86.6213 264.273C86.0274 264.592 85.5543 265.097 85.2745 265.71C84.8889 266.689 84.5559 267.688 84.277 268.702C83.6171 270.157 82.5135 271.365 81.1245 272.154C81.0955 272.148 81.0651 272.152 81.0393 272.167C81.0135 272.182 80.9941 272.206 80.9849 272.234L80.7455 272.364C80.5858 272.443 80.7455 272.683 80.8851 272.603L81.0048 272.543C81.0946 273.611 81.1944 274.688 81.2941 275.765C81.2943 275.79 81.301 275.814 81.3133 275.835C81.3257 275.856 81.3433 275.873 81.3645 275.886C81.3857 275.898 81.4097 275.904 81.4341 275.904C81.4585 275.904 81.4825 275.897 81.5036 275.885C83.078 274.779 84.7244 273.779 86.4318 272.892C87.2398 272.473 88.4968 272.094 89.3348 271.725C90.7916 271.095 92.1707 270.298 93.4449 269.351C93.9636 268.962 93.9437 268.274 93.9437 267.635V267.356C94.2062 266.985 94.3888 266.564 94.4799 266.119C94.5709 265.675 94.5683 265.216 94.4724 264.772C94.7717 263.974 94.8914 263.056 94.0634 262.976Z" fill="#FFA57A"/>
<path d="M93.6242 263.585C93.1283 264.798 92.2627 265.825 91.1502 266.518C91.0205 266.598 91.1502 266.797 91.2599 266.717C92.4245 265.992 93.3291 264.917 93.8437 263.645C93.9035 263.515 93.6741 263.445 93.6242 263.585Z" fill="#DD6B4B"/>
<path d="M93.8539 265.361C93.4269 266.24 92.7593 266.98 91.9285 267.496C91.8088 267.565 91.9285 267.765 92.0482 267.695C92.9094 267.156 93.601 266.385 94.0434 265.47C94.1132 265.361 93.9137 265.241 93.8539 265.361Z" fill="#DD6B4B"/>
<path d="M93.2554 267.555C92.8138 268.125 92.2772 268.614 91.6692 269.002C91.5395 269.082 91.6692 269.291 91.779 269.201C92.4239 268.792 92.9913 268.272 93.4549 267.665C93.5447 267.555 93.3452 267.436 93.2554 267.555Z" fill="#DD6B4B"/>
<path d="M59.2971 231.722C58.9978 231.263 58.509 231.203 58.0302 231.023C57.2648 230.7 56.6586 230.087 56.3442 229.318C55.5861 227.642 55.9851 225.656 55.8654 223.871C55.8244 221.881 55.0825 219.97 53.7704 218.474C53.722 218.553 53.6652 218.626 53.6009 218.693C53.4709 218.825 53.3152 218.928 53.1436 218.996C52.9719 219.065 52.788 219.098 52.6033 219.092C51.9648 219.012 54.1495 216.708 53.6009 216.319C49.8299 217.556 46.7873 223.053 45.9692 226.025C45.6086 227.838 45.5212 229.694 45.7099 231.532C45.7702 232.541 45.6623 233.552 45.3906 234.525C45.0814 235.523 44.5726 236.361 44.1736 237.278C43.3875 239.111 43.0457 241.104 43.176 243.094C42.8561 244.167 42.761 245.295 42.8966 246.406C42.8966 246.476 42.9665 246.546 43.0463 246.516L49.8 243.912C51.3762 243.304 53.3215 242.805 54.5087 241.528C55.0203 240.963 55.3292 240.243 55.3865 239.483C55.412 238.956 55.499 238.434 55.6459 237.927C55.8891 237.368 56.2265 236.855 56.6435 236.41C57.6411 235.203 59.6363 233.418 59.6363 231.762C59.8059 231.672 59.2871 232.081 59.4268 231.921C59.437 231.9 59.4416 231.876 59.44 231.852C59.4384 231.828 59.4308 231.805 59.4177 231.785C59.4047 231.765 59.3868 231.749 59.3657 231.738C59.3446 231.727 59.321 231.721 59.2971 231.722Z" fill="#001127"/>
</g>
</g>
<defs>
<linearGradient id="paint0_linear_1_1308" x1="191.159" y1="365.998" x2="191.159" y2="224.429" gradientUnits="userSpaceOnUse">
<stop stop-color="#99E4F1"/>
<stop offset="1" stop-color="#34C9E3"/>
</linearGradient>
<linearGradient id="paint1_linear_1_1308" x1="191.159" y1="5.85608" x2="191.159" y2="209.964" gradientUnits="userSpaceOnUse">
<stop stop-color="#34C9E3"/>
<stop offset="0.65" stop-color="#9AE4F1"/>
<stop offset="1" stop-color="#CCF1F8"/>
</linearGradient>
<linearGradient id="paint2_linear_1_1308" x1="41.0013" y1="168.833" x2="41.0013" y2="217.566" gradientUnits="userSpaceOnUse">
<stop stop-color="#48CEE6"/>
<stop offset="0.76" stop-color="#79E3F9"/>
<stop offset="1" stop-color="#8AEAFF"/>
</linearGradient>
<linearGradient id="paint3_linear_1_1308" x1="77.7459" y1="97.7933" x2="20.282" y2="104.1" gradientUnits="userSpaceOnUse">
<stop stop-color="#FFF99E"/>
<stop offset="0.53" stop-color="#E5FACF"/>
<stop offset="1" stop-color="#CCFBFF"/>
</linearGradient>
<linearGradient id="paint4_linear_1_1308" x1="250.896" y1="101.226" x2="250.896" y2="134.815" gradientUnits="userSpaceOnUse">
<stop stop-color="#48CEE6"/>
<stop offset="0.76" stop-color="#79E3F9"/>
<stop offset="1" stop-color="#8AEAFF"/>
</linearGradient>
<linearGradient id="paint5_linear_1_1308" x1="5.17754" y1="389.861" x2="147.564" y2="389.861" gradientUnits="userSpaceOnUse">
<stop stop-color="#01BBDC"/>
<stop offset="1" stop-color="white" stop-opacity="0"/>
</linearGradient>
<clipPath id="clip0_1_1308">
<rect width="415" height="415" fill="white"/>
</clipPath>
</defs>
</svg>
