<svg width="415" height="415" viewBox="0 0 415 415" fill="none" xmlns="http://www.w3.org/2000/svg">
<g clip-path="url(#clip0_1_1031)">
<path d="M414.591 0H0V410.361H414.591V0Z" fill="#F0FEFF"/>
<path d="M324.927 375.625H0V119.243H197.265L324.957 246.935L324.927 375.625Z" fill="#CCF1F8"/>
<path d="M0.0798077 258.986V336.459H314.552C318.542 336.459 321.954 295.478 316.358 282.02C315.94 280.925 315.332 279.912 314.562 279.028C308.796 272.962 279.995 265.7 279.477 265.57L270.728 203.1C270.728 170.928 104.129 203.23 37.34 195.788C27.5536 193.244 0.0798077 193.534 0.0798077 193.534V244.181C-0.0997596 252.741 0.0798077 258.986 0.0798077 258.986Z" fill="#03A5C8"/>
<path d="M268.852 234.944C268.553 228.958 268.004 222.973 267.136 216.987C266.697 213.994 266.139 211.051 265.44 208.118C265.082 206.643 264.646 205.188 264.134 203.759C263.875 203.035 263.579 202.326 263.246 201.634C262.902 200.931 262.491 200.263 262.019 199.639C261.77 199.309 261.486 199.008 261.171 198.741C261.005 198.598 260.828 198.468 260.642 198.352L260.353 198.182C260.253 198.131 260.15 198.087 260.043 198.053C259.667 197.907 259.28 197.79 258.886 197.704C258.507 197.614 258.128 197.534 257.749 197.474C256.243 197.195 254.756 197.015 253.25 196.856C250.257 196.536 247.264 196.327 244.271 196.147C241.279 195.968 238.286 195.848 235.293 195.738C232.3 195.629 229.307 195.559 226.315 195.509C223.322 195.459 220.329 195.439 217.336 195.429C214.344 195.419 211.351 195.429 208.358 195.429C202.372 195.489 196.367 195.639 190.341 195.878C178.37 196.337 166.329 197.125 154.368 198.422C151.375 198.754 148.382 199.123 145.39 199.529L143.145 199.848L140.92 200.178C140.182 200.287 139.444 200.397 138.706 200.487L137.598 200.636L136.491 200.776C130.575 201.534 124.62 202.033 118.644 202.392C106.673 203.091 94.7018 203.2 82.7306 203.011C70.7595 202.821 58.7883 202.273 46.8172 201.524C43.8244 201.345 40.8316 201.145 37.8388 200.926C34.846 200.716 31.8532 200.477 28.8604 200.237C25.8677 199.998 22.8749 199.739 19.8821 199.469C16.8893 199.2 13.8965 198.911 10.9037 198.611C13.8766 199.044 16.8494 199.446 19.8222 199.818C22.7951 200.191 25.7879 200.55 28.8006 200.896C31.7934 201.235 34.7862 201.544 37.779 201.893C40.7717 202.243 43.7645 202.472 46.7573 202.741C58.7285 203.789 70.6996 204.537 82.7207 204.916C85.7268 205.016 88.7195 205.086 91.699 205.126C94.6918 205.126 97.6846 205.185 100.677 205.126C106.663 205.126 112.698 204.946 118.714 204.637C124.729 204.328 130.685 203.829 136.671 203.101L138.915 202.811C139.663 202.721 140.412 202.612 141.15 202.502L143.375 202.173L145.599 201.864C148.592 201.464 151.525 201.105 154.498 200.776C160.483 200.118 166.399 199.599 172.375 199.17C178.35 198.741 184.346 198.392 190.331 198.113C202.303 197.574 214.274 197.311 226.245 197.324C232.23 197.324 238.216 197.434 244.202 197.664C247.194 197.773 250.187 197.933 253.18 198.172C254.666 198.302 256.173 198.452 257.599 198.681C257.958 198.731 258.318 198.801 258.677 198.871C259.014 198.94 259.348 199.03 259.674 199.14C260.27 199.395 260.787 199.805 261.171 200.327C261.615 200.88 262 201.479 262.318 202.113C262.656 202.761 262.959 203.427 263.226 204.108C263.761 205.49 264.224 206.898 264.612 208.328C265.41 211.201 266.019 214.134 266.558 217.077C267.096 220.02 267.555 222.983 267.914 225.955C268.274 228.928 268.573 231.961 268.852 234.944Z" fill="#ACCDF9"/>
<path d="M255.385 265.57L285.572 279.028L286.969 323.281L288.964 281.063C294.351 275.895 311.908 275.287 316.318 282.06C315.9 280.965 315.292 279.952 314.522 279.068C308.756 273.002 279.955 265.74 279.437 265.61C269.73 264.363 260.782 263.685 255.385 265.57Z" fill="#0779A0"/>
<path d="M286.988 323.281H0.0798035V309.045H255.405L286.988 323.281Z" fill="#0779A0"/>
<path d="M0.0798035 351.074H310.542L314.552 336.459H0.0798035V351.074Z" fill="#0779A0"/>
<path d="M260.452 311.32L267.784 314.622C270.917 307.369 277.102 276.055 277.252 275.327C271.964 290.301 265.55 306.073 260.452 311.32Z" fill="#0779A0"/>
<path d="M252.043 313.465C261.25 314.462 267.785 314.622 267.785 314.622L260.452 311.32C259.726 312.186 258.751 312.81 257.659 313.105C255.801 313.357 253.927 313.474 252.053 313.455L252.043 313.465Z" fill="#0779A0"/>
<path d="M196.526 309.045H199.17C199.3 299.398 210.852 284.714 218.234 274.199C221.097 270.129 223.322 266.687 224.02 264.403C224.02 264.403 225.187 243.453 227.113 237.009C225.936 239.373 224.06 243.493 223.651 246.316C223.063 250.486 221.077 262.108 218.234 267.805C215.391 273.501 192.376 302.471 196.526 309.045Z" fill="#0779A0"/>
<path d="M199.19 309.724C199.19 309.724 247.424 314.841 257.659 313.106C267.894 311.37 287.308 243.932 287.308 243.932C287.308 243.932 288.375 240.201 286.949 239.533C285.522 238.864 281.242 240.351 279.417 239.962C268.583 237.608 251.115 238.815 251.115 238.815C251.115 238.815 230.515 233.827 228.031 235.163C225.547 236.5 224.03 264.363 224.03 264.363C223.332 266.648 221.107 270.089 218.244 274.159C210.682 284.963 198.761 300.107 199.19 309.724Z" fill="white"/>
<path d="M227.123 237.009C227.671 235.892 228.12 235.163 228.12 235.163C227.741 235.343 227.452 236.001 227.123 237.009Z" fill="white"/>
<path d="M251.155 238.814C251.155 238.814 243.703 240.361 240.101 241.628C243.149 240.202 246.353 239.137 249.648 238.455L251.155 238.814Z" fill="#0779A0"/>
<path d="M275.337 280.644C272.969 279.355 270.429 278.411 267.795 277.841C267.795 277.841 273.84 282.27 273.98 284.295L275.337 280.644Z" fill="#0779A0"/>
<path d="M282.24 260.492V260.422C285.313 250.905 287.328 243.932 287.328 243.932C287.328 243.932 288.395 240.201 286.969 239.533C285.542 238.864 281.262 240.351 279.437 239.962L278.289 239.732L269.221 242.845C272.472 241.777 275.81 240.999 279.197 240.52C281.961 240.201 284.664 241.049 285.422 240.989C287.447 240.85 282.37 259.993 282.24 260.492Z" fill="#0779A0"/>
<path d="M218.244 274.199C223.661 266.677 229.158 263.106 229.088 260.492C229.018 257.879 224.03 264.403 224.03 264.403C223.332 266.687 221.107 270.129 218.244 274.199Z" fill="#0779A0"/>
<path d="M0.0798035 240.56C3.76093 239.702 16.1411 233.787 22.5656 237.029C25.0496 238.336 26.6059 266.258 26.6059 266.258C35.8282 279.984 43.7915 294.515 50.3986 309.674C50.5133 309.883 50.5747 310.117 50.577 310.356C50.5794 310.594 50.5228 310.829 50.4122 311.041C50.3016 311.252 50.1405 311.433 49.9432 311.567C49.7458 311.701 49.5185 311.784 49.2812 311.809C41.5 312.597 14.4651 315.28 0.0798035 315.38V240.56Z" fill="#0779A0"/>
<path d="M0.0798077 244.172C3.76094 243.304 15.9615 237.428 22.3462 240.69C24.8302 242.007 26.3864 269.93 26.3864 269.93C35.6087 283.655 43.572 298.186 50.1791 313.345C50.2943 313.553 50.3559 313.787 50.3584 314.025C50.3609 314.263 50.3042 314.498 50.1934 314.709C50.0826 314.919 49.9212 315.099 49.7237 315.232C49.5262 315.365 49.2987 315.447 49.0618 315.47C41.2805 316.268 14.4651 318.882 0.0798077 318.991V258.986C0.0798077 258.986 -0.0997596 252.741 0.0798077 244.172Z" fill="white"/>
<path d="M26.3864 269.93L24.491 278.828L26.0373 264.593L26.3864 269.93Z" fill="#0779A0"/>
<path d="M128.82 131.473C131.254 127.343 153.311 129.697 155.645 160.114C155.645 160.114 153.011 175.577 164.623 184.825C176.235 194.072 140.531 210.333 125.717 208.717C88.6065 204.657 94.8614 191.359 94.8614 191.359L103.321 179.996C108.578 173.462 104.498 161.87 106.833 149.29C105.306 143.015 121.856 125.118 128.82 131.473Z" fill="#282828"/>
<path d="M89.8535 195.659C94.1132 192.785 108 190.351 120.011 189.942C120.011 189.942 129.987 189.473 141.319 189.942C154.607 190.481 169.821 192.157 173.362 195.16C179.916 200.736 194.831 245.578 194.831 255.814C194.831 266.049 176.874 286.011 176.874 286.011H109.157L99.2608 284.465L88.7861 282.928C88.7861 282.928 75.109 278.728 72.5651 275.945C66.3002 267.555 82.8703 201.225 89.8535 195.659Z" fill="#01BBDC"/>
<path opacity="0.2" d="M99.1411 219.012L93.774 256.512C93.5246 257.629 85.8531 257.15 80.4761 256.901L93.5147 259.046L96.6571 261.211C96.6571 261.211 99.2808 225.966 100.558 223.073C101.835 220.18 98.762 212.209 98.762 212.209L99.1411 219.012Z" fill="black"/>
<path opacity="0.2" d="M168.255 219.012L163.716 259.046L166.539 261.211C166.539 261.211 168.414 225.966 169.691 223.073C170.968 220.18 167.856 212.209 167.856 212.209L168.255 219.012Z" fill="black"/>
<path d="M176.874 286.011C176.874 286.011 179.497 293.433 179.059 294.74C178.62 296.047 179.248 302.461 179.248 302.461L181.393 314.921L179.138 334.993V375.625H157.9L133.019 286.011H176.874Z" fill="#0779A0"/>
<path opacity="0.2" d="M133.019 286.011H171.487C171.72 286.767 172.106 287.467 172.621 288.067C173.136 288.668 173.768 289.156 174.48 289.502C174.48 289.502 156.593 284.464 145.968 291.408C140.122 295.647 142.756 302.262 143.335 305.753C143.913 309.245 143.484 313.923 145.968 318.313C148.452 322.702 158.937 372.702 157.87 375.625L133.019 286.011Z" fill="black"/>
<path d="M89.4145 314.951L109.865 327.311L130.685 375.625H157.939C157.939 370.358 151.405 345.527 149.57 335.96C148.831 332.14 146.786 327.501 146.517 326.354C144.358 321.416 143.202 316.099 143.115 310.711C143.335 305.723 136.371 288.345 135.134 287.068C132.082 283.986 119.452 283.198 108.947 285.881L92.5669 283.467L88.7861 282.928C80.1169 292.186 85.7933 312.547 89.4145 314.951Z" fill="#0779A0"/>
<g opacity="0.2">
<path d="M103.171 316.777C104.269 322.263 105.346 322.124 105.346 322.124L106.743 316.238C107.452 320.008 108.507 323.705 109.895 327.281L89.4445 314.921C89.4445 314.921 100.328 319.969 101.206 320.228C102.084 320.488 103.171 316.777 103.171 316.777Z" fill="black"/>
<path d="M88.7861 282.928L92.4572 283.467C92.4572 283.467 88.3471 285.702 86.741 293.742C86.4758 294.81 86.3286 295.904 86.3021 297.004C86.3021 297.004 91.5793 292.765 91.29 296.186C90.7713 298.351 86.6512 298.411 86.4617 302.96C86.2721 307.509 89.3846 314.931 89.3846 314.931C85.7933 312.547 80.117 292.186 88.7861 282.928Z" fill="black"/>
</g>
<path d="M120.011 178.29V189.942C122.944 191.03 127.084 201.634 133.818 201.634C140.551 201.634 141.319 189.942 141.319 189.942V183.797C140.979 184.152 140.615 184.485 140.232 184.795C132.84 186.7 127.782 183.039 120.011 178.29Z" fill="#F7A491"/>
<path d="M120.011 178.29V189.942C120.011 189.942 120.5 190.052 121.497 191.089C122.495 189.334 124.739 183.428 127.184 184.376C138.566 189.583 140.232 186.072 141.319 184.675V183.797C140.979 184.152 140.615 184.485 140.232 184.795C132.84 186.7 127.782 183.039 120.011 178.29Z" fill="#F47458"/>
<path d="M117.856 167.237C118.046 172.554 118.754 176.215 120.011 178.29C122.575 179.857 124.849 181.283 126.994 182.48C131.363 184.844 135.274 186.052 140.222 184.755C142.576 183.049 151.016 172.973 151.016 164.693C149.49 159.236 151.904 152.872 149.4 148.732C145.679 145.858 137.219 145.32 130.655 141.329C126.254 143.764 122.651 147.419 120.28 151.854C119.891 153.011 118.155 155.685 118.085 157.061C118.085 157.261 117.776 164.104 117.766 164.324C117.756 164.543 117.088 157.84 117.078 158.149C115.941 156.922 114.015 156.912 113.726 157.889C113.147 158.937 113.387 167.516 117.856 167.237Z" fill="#F7A491"/>
<path d="M117.856 167.237C118.046 172.554 118.754 176.215 120.011 178.29C122.575 179.857 124.849 181.283 126.994 182.48C126.994 182.48 121.567 175.607 120.839 170.639C120.111 165.671 123.832 161.431 123.921 157.77C124.011 154.109 124.051 146.517 130.655 141.31C126.254 143.744 122.651 147.399 120.28 151.834C119.891 152.991 118.155 155.665 118.085 157.042C118.085 157.241 117.776 164.085 117.766 164.304C117.756 164.524 117.088 157.82 117.078 158.129C115.941 156.902 114.015 156.892 113.726 157.87C113.147 158.937 113.387 167.516 117.856 167.237Z" fill="#F47458"/>
<path opacity="0.2" d="M108.878 285.881C108.878 285.881 101.136 287.328 97.3354 288.934C97.3354 288.934 102.134 286.699 99.2608 284.465L108.878 285.881Z" fill="black"/>
<path opacity="0.2" d="M142.716 202.911C142.716 202.911 136.731 209.176 124.829 203.001C132.331 204.118 137.568 204.358 142.716 202.911Z" fill="black"/>
<path d="M101.755 286.011H178.061C179.272 285.965 180.424 285.48 181.304 284.647C182.183 283.813 182.729 282.688 182.839 281.482L189.972 230.136C190.049 229.562 190 228.979 189.829 228.426C189.659 227.873 189.369 227.364 188.982 226.935C188.595 226.505 188.119 226.164 187.587 225.937C187.055 225.709 186.48 225.6 185.902 225.616H106.094C104.857 225.639 103.67 226.11 102.753 226.941C101.836 227.771 101.251 228.907 101.106 230.136L97.924 281.482C97.8384 282.037 97.8729 282.605 98.0253 283.146C98.1778 283.688 98.4446 284.19 98.8077 284.619C99.1708 285.048 99.6217 285.395 100.13 285.635C100.639 285.875 101.193 286.003 101.755 286.011Z" fill="white"/>
<path d="M183.149 265.44L187.478 229.587C187.505 229.361 187.484 229.133 187.416 228.916C187.348 228.699 187.235 228.5 187.084 228.33C186.933 228.16 186.748 228.025 186.541 227.932C186.334 227.839 186.109 227.791 185.882 227.791H139.444C139.444 227.791 182.71 229.347 183.867 230.894C185.024 232.44 183.149 265.44 183.149 265.44Z" fill="#0779A0"/>
<path d="M142.866 258.008C144.033 257.974 145.153 257.535 146.033 256.767C146.914 256 147.501 254.951 147.694 253.798C147.864 252.897 147.677 251.964 147.173 251.197C146.668 250.431 145.886 249.89 144.991 249.688C145.36 249.625 145.733 249.592 146.108 249.589C146.893 249.566 147.672 249.719 148.39 250.038C149.107 250.357 149.744 250.832 150.253 251.429C150.762 252.027 151.131 252.731 151.332 253.489C151.533 254.248 151.562 255.042 151.415 255.814C151.132 257.514 150.266 259.064 148.967 260.197C147.668 261.331 146.016 261.978 144.292 262.029C143.509 262.051 142.73 261.898 142.013 261.58C141.297 261.262 140.661 260.787 140.152 260.191C139.643 259.595 139.274 258.892 139.072 258.135C138.87 257.377 138.84 256.584 138.985 255.814C139.036 255.437 139.123 255.066 139.244 254.706C139.301 255.619 139.711 256.474 140.387 257.091C141.062 257.707 141.952 258.036 142.866 258.008Z" fill="#0779A0"/>
<path opacity="0.2" d="M372.512 353.907C387.063 353.907 398.859 352.228 398.859 350.156C398.859 348.085 387.063 346.405 372.512 346.405C357.962 346.405 346.166 348.085 346.166 350.156C346.166 352.228 357.962 353.907 372.512 353.907Z" fill="#0779A0"/>
<path d="M367.115 287.497C366.968 284.612 366.291 281.778 365.12 279.137C363.494 276.025 360.661 273.78 358.137 271.316C353.482 266.67 349.942 261.028 347.782 254.816C346.126 250.028 345.298 244.93 343.023 240.411C341.627 237.647 339.721 235.183 338.135 232.52C334.394 226.245 332.359 218.833 327.281 213.565C326.815 216.762 327.033 220.021 327.92 223.127C328.808 226.232 330.344 229.114 332.429 231.582C333.784 232.943 335.007 234.429 336.08 236.021C337.806 239.014 337.656 242.745 337.856 246.227C338.242 252.799 340.071 259.206 343.213 264.992C346.545 271.107 351.353 276.544 353.129 283.277C354.466 288.325 354.067 293.982 356.91 298.361C357.224 298.678 357.452 299.07 357.572 299.499C357.693 299.928 357.702 300.381 357.598 300.815C357.528 301.224 357.469 301.633 357.399 302.032C356.76 306.162 356.092 311.42 359.633 314.512C362.097 316.657 365.26 316.697 367.026 313.854C368.791 311.011 368.652 306.801 368.512 303.569C368.303 298.211 367.734 292.834 367.115 287.497Z" fill="#01BBDC"/>
<path d="M373.52 284.175C372.133 279.387 369.998 274.838 368.921 269.979C367.923 265.271 367.874 260.393 367.864 255.564C367.864 250.244 367.864 244.956 367.864 239.702C367.956 236.407 367.772 233.111 367.315 229.846C366.148 222.863 362.516 216.399 361.898 209.346C361.629 206.293 361.898 203.2 361.609 200.158C361.437 198.398 360.947 196.684 360.162 195.1C359.961 194.741 359.666 194.445 359.308 194.242C358.951 194.039 358.545 193.938 358.134 193.949C357.723 193.96 357.323 194.084 356.977 194.306C356.631 194.528 356.353 194.841 356.172 195.21C354.406 199.03 353.289 203.19 353.997 207.261C354.582 209.685 355.345 212.062 356.281 214.373C359.823 224.888 357.947 236.54 360.681 247.294C361.509 250.536 362.756 253.719 362.906 257.071C363.245 265.051 357.259 272.404 357.808 280.404C358.267 286.968 362.975 292.375 364.961 298.67C366.068 302.182 366.307 305.923 367.494 309.414C368.412 312.118 370.557 315.4 373.889 314.582C377.061 313.804 376.104 311.22 375.964 308.756C375.425 300.416 375.874 292.296 373.52 284.175Z" fill="#0C4D77"/>
<path d="M380.762 288.555C380.623 286.071 380.204 283.567 380.553 281.103C380.974 279.046 381.545 277.022 382.259 275.047C383.231 271.228 383.786 267.314 383.915 263.375C384.407 256.246 384.893 249.106 385.371 241.957C386.13 230.864 386.898 219.73 388.973 208.797C389.551 205.804 390.2 202.482 388.833 199.709C388.544 199.12 387.975 198.502 387.357 198.711C386.918 198.851 386.698 199.33 386.539 199.769C382 212.099 380.284 225.367 375.226 237.488C373.856 240.324 372.767 243.288 371.974 246.336C371.215 250.037 371.634 253.858 371.734 257.639C371.928 263.068 371.293 268.494 369.849 273.73C368.918 276.409 368.161 279.144 367.584 281.921C367.056 285.422 367.504 288.974 367.834 292.495C368.482 299.265 368.702 306.069 368.492 312.866C368.362 316.856 371.734 316.757 373.969 314.303C375.535 312.587 375.515 310.701 376.054 308.566C377.81 301.543 381.181 296.156 380.762 288.555Z" fill="#01BBDC"/>
<path d="M359.693 299.389C356.7 294.59 350.765 291.867 348.859 286.56C348.381 285.203 348.191 283.746 347.592 282.439C346.276 279.536 343.283 277.89 340.35 276.554C340.255 276.511 340.151 276.492 340.048 276.499C339.944 276.506 339.844 276.539 339.756 276.594C339.668 276.649 339.595 276.726 339.544 276.816C339.492 276.907 339.464 277.008 339.462 277.112C339.455 277.465 339.535 277.814 339.698 278.128C339.86 278.442 340.098 278.71 340.39 278.908C342.677 280.453 344.355 282.746 345.138 285.392C346.046 288.505 345.657 291.927 346.784 294.959C347.732 297.513 349.687 299.608 350.605 302.172C351.443 304.516 351.353 307.07 351.742 309.534C352.131 311.998 353.229 314.602 355.493 315.639C363.654 319.4 361.619 302.481 359.693 299.389Z" fill="#0C4D77"/>
<path d="M393.661 297.802C393.542 300.117 393.891 302.551 392.983 304.686C392.288 305.995 391.459 307.229 390.509 308.367C387.516 312.617 386.409 318.642 381.79 321.036C381.493 321.223 381.142 321.307 380.792 321.276C380.558 321.203 380.344 321.074 380.171 320.9C379.997 320.726 379.868 320.513 379.795 320.278C378.658 317.635 379.934 314.662 380.683 311.888C380.862 311.416 380.862 310.894 380.683 310.422C380.433 309.933 379.845 309.714 379.456 309.335C378.668 308.566 378.737 307.339 378.897 306.202C379.286 303.475 379.836 300.774 380.543 298.112C380.875 296.581 381.462 295.118 382.279 293.782C383.326 292.421 384.55 291.206 385.92 290.171C391.703 285.184 396.06 278.754 398.55 271.536C398.95 269.935 399.669 268.432 400.665 267.116C401.772 265.899 403.737 265.271 405.074 266.218C406.071 266.887 402.081 273.202 401.662 273.94C400.355 276.105 400.335 277.98 399.607 280.374C397.841 286.31 394.05 291.508 393.661 297.802Z" fill="#01BBDC"/>
<path d="M389.112 300.486C390.056 298.309 390.726 296.024 391.108 293.682C391.417 291.069 391.008 288.385 391.457 285.791C392.025 282.459 393.971 279.517 394.938 276.274C395.508 273.894 395.938 271.482 396.225 269.052C397.412 262.168 400.655 255.435 399.727 248.501C399.527 246.995 398.839 245.229 397.343 244.98C395.846 244.73 394.759 245.977 394.41 247.314C394.185 248.675 394.185 250.063 394.41 251.424C394.687 255.285 393.631 259.123 391.417 262.298C389.292 265.291 386.199 267.585 384.284 270.728C381.94 274.598 381.62 279.317 380.413 283.696C378.029 292.376 372.053 299.937 370.966 308.876C370.527 312.427 371.365 316.757 374.647 318.173C384.075 322.274 386.958 306.043 389.112 300.486Z" fill="#0C4D77"/>
<path d="M372.522 311.5H350.745C350.396 311.499 350.052 311.577 349.738 311.729C349.424 311.881 349.148 312.102 348.932 312.376C348.716 312.65 348.565 312.969 348.49 313.31C348.415 313.65 348.419 314.004 348.5 314.343L356.481 347.822C356.598 348.327 356.883 348.777 357.289 349.1C357.694 349.422 358.197 349.598 358.716 349.598H384.883C385.402 349.596 385.905 349.42 386.312 349.098C386.719 348.776 387.006 348.327 387.127 347.822L395.108 314.343C395.187 314.004 395.19 313.651 395.114 313.311C395.038 312.971 394.887 312.653 394.671 312.38C394.456 312.107 394.181 311.885 393.868 311.733C393.555 311.581 393.212 311.501 392.863 311.5H372.522Z" fill="#99E4F1"/>
<path opacity="0.2" d="M163.895 382.897C234.285 382.897 291.348 378.56 291.348 373.211C291.348 367.861 234.285 363.524 163.895 363.524C93.5048 363.524 36.4422 367.861 36.4422 373.211C36.4422 378.56 93.5048 382.897 163.895 382.897Z" fill="#0779A0"/>
<path d="M415 375.625H0V415H415V375.625Z" fill="#DEFBFF"/>
<path d="M176.874 49.5405H345.168C345.701 49.5561 346.207 49.778 346.579 50.1596C346.952 50.5412 347.161 51.0525 347.163 51.5856V62.2798H173.672V52.7329C173.672 52.3128 173.754 51.8969 173.915 51.5089C174.077 51.1209 174.313 50.7686 174.61 50.472C174.908 50.1755 175.261 49.9405 175.649 49.7807C176.038 49.6208 176.454 49.5392 176.874 49.5405Z" fill="white"/>
<path opacity="0.4" d="M172.664 62.28V122.076H250.796V72.675C250.794 71.8504 250.499 71.0533 249.964 70.4264C249.428 69.7994 248.687 69.3835 247.873 69.2532C249.658 69.4428 255.335 70.4104 256.951 75.3086V126.954C256.951 127.931 256.758 128.899 256.384 129.802C256.01 130.705 255.462 131.525 254.771 132.217C254.08 132.908 253.26 133.456 252.357 133.83C251.454 134.204 250.486 134.396 249.509 134.396H172.694V149.191C172.693 149.56 172.764 149.925 172.904 150.266C173.045 150.608 173.251 150.918 173.511 151.179C173.772 151.441 174.081 151.648 174.422 151.789C174.763 151.931 175.128 152.004 175.497 152.004H345.527C346.273 152.004 346.989 151.707 347.517 151.18C348.044 150.652 348.341 149.937 348.341 149.191V62.28H172.664Z" fill="#01BBDC"/>
<path d="M365.769 64.5942H354.296C352.55 64.5942 351.134 66.0101 351.134 67.7566V105.057C351.134 106.803 352.55 108.219 354.296 108.219H365.769C367.515 108.219 368.931 106.803 368.931 105.057V67.7566C368.931 66.0101 367.515 64.5942 365.769 64.5942Z" fill="#CFF3FA"/>
<path d="M250.796 72.6749V122.076H172.664V69.2033H247.324C247.507 69.1881 247.69 69.1881 247.873 69.2033C248.695 69.3349 249.443 69.758 249.98 70.3954C250.517 71.0327 250.806 71.8418 250.796 72.6749Z" fill="#CCF1F8"/>
<path d="M345.527 43.2358H175.467C173.242 43.2411 171.109 44.1281 169.537 45.7025C167.964 47.2769 167.08 49.4104 167.077 51.6356V149.191C167.08 151.416 167.964 153.549 169.537 155.124C171.109 156.698 173.242 157.585 175.467 157.59H345.527C347.754 157.588 349.889 156.702 351.464 155.127C353.038 153.552 353.924 151.417 353.927 149.191V51.6356C353.924 49.4087 353.038 47.2737 351.464 45.699C349.889 44.1243 347.754 43.2385 345.527 43.2358ZM348.34 149.191C348.34 149.937 348.044 150.652 347.516 151.18C346.989 151.707 346.273 152.004 345.527 152.004H175.467C175.098 152.004 174.733 151.931 174.392 151.789C174.051 151.648 173.742 151.441 173.481 151.179C173.221 150.918 173.014 150.608 172.874 150.266C172.734 149.925 172.662 149.56 172.664 149.191V134.396H249.479C251.452 134.396 253.345 133.612 254.741 132.216C256.137 130.821 256.921 128.928 256.921 126.954V119.512C256.482 126.834 250.227 126.954 249.818 126.954H172.664V51.6356C172.662 51.2666 172.734 50.901 172.874 50.5598C173.014 50.2185 173.221 49.9083 173.481 49.647C173.742 49.3856 174.051 49.1782 174.392 49.0367C174.733 48.8952 175.098 48.8224 175.467 48.8224H345.527C346.273 48.8224 346.989 49.1188 347.516 49.6464C348.044 50.1739 348.34 50.8895 348.34 51.6356V149.191Z" fill="#A5EDFC"/>
<path opacity="0.4" d="M250.796 122.076V125.927C250.796 126.191 250.691 126.445 250.503 126.632C250.316 126.819 250.063 126.924 249.798 126.924H172.664V122.046L250.796 122.076Z" fill="#01BBDC"/>
<path d="M256.951 75.3086V119.512C256.512 126.834 250.257 126.954 249.848 126.954H249.768C250.033 126.954 250.286 126.849 250.474 126.662C250.661 126.475 250.766 126.221 250.766 125.957V72.6749C250.764 71.8504 250.469 71.0533 249.934 70.4263C249.398 69.7994 248.657 69.3835 247.843 69.2532C249.658 69.4427 255.385 70.4104 256.951 75.3086Z" fill="#B8EDF8"/>
<path d="M191 55.0076H181.503V60.3148H191V55.0076Z" fill="#70DAF0"/>
<path d="M202.203 55.0076H193.304V60.3148H202.203V55.0076Z" fill="#70DAF0"/>
<path d="M330.863 67.677H262.597C259.479 67.677 256.951 70.205 256.951 73.3234V143.125C256.951 146.244 259.479 148.772 262.597 148.772H330.863C333.981 148.772 336.509 146.244 336.509 143.125V73.3234C336.509 70.205 333.981 67.677 330.863 67.677Z" fill="#FAFDFD"/>
<path d="M331.97 98.9814V102.752C331.97 103.179 331.886 103.602 331.723 103.997C331.559 104.391 331.32 104.75 331.018 105.052C330.716 105.354 330.357 105.594 329.962 105.757C329.568 105.92 329.145 106.005 328.718 106.005H265.081C264.654 106.005 264.231 105.92 263.837 105.757C263.442 105.594 263.084 105.354 262.782 105.052C262.48 104.75 262.24 104.391 262.077 103.997C261.913 103.602 261.829 103.179 261.829 102.752V98.9814H331.97Z" fill="#63D7EF"/>
<path d="M331.97 75.3684V98.9815H261.829V75.3684C261.829 74.9413 261.913 74.5184 262.077 74.1238C262.24 73.7293 262.48 73.3707 262.782 73.0687C263.084 72.7668 263.442 72.5272 263.837 72.3638C264.231 72.2003 264.654 72.1162 265.081 72.1162H328.718C329.145 72.1162 329.568 72.2003 329.962 72.3638C330.357 72.5272 330.716 72.7668 331.018 73.0687C331.32 73.3707 331.559 73.7293 331.723 74.1238C331.886 74.5184 331.97 74.9413 331.97 75.3684Z" fill="#9DE5F4"/>
<path d="M267.984 114.724H327.072C327.87 114.724 328.668 114.724 329.466 114.724H329.576C329.738 114.739 329.901 114.72 330.054 114.668C330.208 114.617 330.35 114.533 330.47 114.424C330.59 114.315 330.686 114.181 330.751 114.033C330.817 113.884 330.851 113.724 330.851 113.561C330.851 113.399 330.817 113.239 330.751 113.09C330.686 112.941 330.59 112.808 330.47 112.699C330.35 112.59 330.208 112.506 330.054 112.455C329.901 112.403 329.738 112.384 329.576 112.399H267.984C267.695 112.426 267.425 112.56 267.229 112.775C267.033 112.99 266.925 113.271 266.925 113.561C266.925 113.852 267.033 114.133 267.229 114.348C267.425 114.563 267.695 114.697 267.984 114.724Z" fill="#C9F3FA"/>
<path d="M309.384 125.977H327.68C328.528 125.977 329.376 125.977 330.224 125.977C330.514 125.95 330.783 125.816 330.979 125.601C331.175 125.386 331.284 125.105 331.284 124.814C331.284 124.523 331.175 124.243 330.979 124.028C330.783 123.813 330.514 123.679 330.224 123.652H311.958C311.12 123.652 310.272 123.652 309.424 123.652C309.135 123.679 308.866 123.813 308.67 124.028C308.474 124.243 308.365 124.523 308.365 124.814C308.365 125.105 308.474 125.386 308.67 125.601C308.866 125.816 309.135 125.95 309.424 125.977H309.384Z" fill="#C9F3FA"/>
<path d="M267.984 125.976H297.104C298.441 125.976 299.778 125.976 301.095 125.976C301.256 125.991 301.419 125.972 301.573 125.921C301.727 125.869 301.869 125.786 301.989 125.677C302.109 125.567 302.204 125.434 302.27 125.286C302.336 125.137 302.369 124.977 302.369 124.814C302.369 124.652 302.336 124.491 302.27 124.343C302.204 124.194 302.109 124.061 301.989 123.952C301.869 123.842 301.727 123.759 301.573 123.707C301.419 123.656 301.256 123.637 301.095 123.652H272.064C270.718 123.652 269.381 123.652 268.074 123.652H268.014C267.725 123.679 267.455 123.813 267.259 124.028C267.063 124.243 266.955 124.523 266.955 124.814C266.955 125.105 267.063 125.385 267.259 125.6C267.455 125.815 267.725 125.949 268.014 125.976H267.984Z" fill="#C9F3FA"/>
<path d="M264.273 139.254H293.832C295.189 139.254 296.555 139.254 297.912 139.254H297.972C298.315 139.249 298.643 139.111 298.887 138.87C299.131 138.628 299.271 138.301 299.279 137.958C299.271 137.613 299.131 137.285 298.888 137.042C298.644 136.798 298.316 136.658 297.972 136.651H268.413C267.057 136.651 265.69 136.651 264.333 136.651H264.273C264.093 136.635 263.911 136.657 263.739 136.715C263.568 136.773 263.41 136.867 263.276 136.989C263.143 137.111 263.036 137.26 262.963 137.426C262.89 137.592 262.852 137.771 262.852 137.953C262.852 138.134 262.89 138.313 262.963 138.479C263.036 138.645 263.143 138.794 263.276 138.916C263.41 139.039 263.568 139.132 263.739 139.19C263.911 139.248 264.093 139.27 264.273 139.254Z" fill="#C9F3FA"/>
<path d="M306.97 139.254H330.633C331.731 139.254 332.828 139.254 333.925 139.254C334.251 139.226 334.554 139.076 334.775 138.835C334.996 138.594 335.118 138.279 335.118 137.953C335.118 137.626 334.996 137.311 334.775 137.07C334.554 136.829 334.251 136.679 333.925 136.651H310.312C309.215 136.651 308.118 136.651 307.02 136.651H306.97C306.645 136.679 306.342 136.829 306.121 137.07C305.9 137.311 305.778 137.626 305.778 137.953C305.778 138.279 305.9 138.594 306.121 138.835C306.342 139.076 306.645 139.226 306.97 139.254Z" fill="#C9F3FA"/>
<path d="M182.66 144.412H243.593C244.421 144.412 245.239 144.412 246.067 144.412H246.177C246.466 144.385 246.736 144.251 246.932 144.036C247.128 143.821 247.236 143.541 247.236 143.25C247.236 142.959 247.128 142.678 246.932 142.463C246.736 142.248 246.466 142.114 246.177 142.088H185.234C184.416 142.088 183.588 142.088 182.77 142.088H182.66C182.498 142.073 182.335 142.091 182.181 142.143C182.027 142.195 181.886 142.278 181.766 142.387C181.646 142.497 181.55 142.63 181.484 142.778C181.419 142.927 181.385 143.087 181.385 143.25C181.385 143.412 181.419 143.573 181.484 143.721C181.55 143.87 181.646 144.003 181.766 144.112C181.886 144.222 182.027 144.305 182.181 144.356C182.335 144.408 182.498 144.427 182.66 144.412Z" fill="#BAE7F7"/>
<path d="M190.012 107.641L191.309 110.264L194.202 110.683L192.107 112.728L192.606 115.611L190.012 114.255L187.428 115.611L187.917 112.728L185.822 110.683L188.715 110.264L190.012 107.641Z" fill="#70DAF0"/>
<path d="M201.774 107.641L203.071 110.264L205.964 110.683L203.869 112.728L204.358 115.611L201.774 114.255L199.18 115.611L199.679 112.728L197.584 110.683L200.477 110.264L201.774 107.641Z" fill="#70DAF0"/>
<path d="M213.196 107.641L214.493 110.264L217.386 110.683L215.291 112.728L215.79 115.611L213.196 114.255L210.603 115.611L211.101 112.728L209.006 110.683L211.899 110.264L213.196 107.641Z" fill="#70DAF0"/>
<path d="M224.778 107.641L226.075 110.264L228.968 110.683L226.873 112.728L227.372 115.611L224.778 114.255L222.185 115.611L222.683 112.728L220.588 110.683L223.481 110.264L224.778 107.641Z" fill="#70DAF0"/>
<path d="M236.38 107.641L237.677 110.264L240.57 110.683L238.475 112.728L238.964 115.611L236.38 114.255L233.787 115.611L234.275 112.728L232.181 110.683L235.084 110.264L236.38 107.641Z" fill="#70DAF0"/>
<path d="M247.873 69.2532H247.324" stroke="#A5EDFC" stroke-width="0.05" stroke-miterlimit="10"/>
<path d="M135.913 64.2952C135.579 64.2952 135.25 64.3611 134.942 64.4892C134.634 64.6173 134.355 64.805 134.121 65.0414C133.886 65.2779 133.701 65.5585 133.575 65.867C133.449 66.1756 133.386 66.5059 133.389 66.839V98.8519C133.389 99.5213 133.655 100.163 134.128 100.637C134.601 101.11 135.243 101.376 135.913 101.376H170.469V64.2952H135.913ZM168.414 97.9541H139.304C138.619 97.9541 137.962 97.6818 137.477 97.1973C136.993 96.7127 136.721 96.0555 136.721 95.3703V71.4978C136.721 70.8126 136.993 70.1554 137.477 69.6708C137.962 69.1863 138.619 68.914 139.304 68.914H168.414V97.9541Z" fill="#B3ECF5"/>
<path d="M168.414 68.9141V97.9541H139.304C138.619 97.9541 137.962 97.6819 137.477 97.1973C136.993 96.7128 136.721 96.0556 136.721 95.3703V71.4978C136.721 70.8126 136.993 70.1554 137.477 69.6708C137.962 69.1863 138.619 68.9141 139.304 68.9141H168.414Z" fill="#CEF7FC"/>
<path d="M147.584 77.5232H163.326C163.716 77.4919 164.08 77.3149 164.346 77.0274C164.611 76.74 164.758 76.3631 164.758 75.9719C164.758 75.5807 164.611 75.2039 164.346 74.9164C164.08 74.6289 163.716 74.4519 163.326 74.4207H147.584C147.186 74.4337 146.808 74.6033 146.534 74.8927C146.259 75.1822 146.11 75.5681 146.118 75.9669C146.115 76.3653 146.266 76.7495 146.539 77.0394C146.812 77.3293 147.187 77.5026 147.584 77.5232Z" fill="#82DEF3"/>
<path d="M147.115 83.7982H163.795C164.603 83.7982 165.381 83.2295 165.342 82.5611C165.292 82.196 165.103 81.8639 164.816 81.6336C164.528 81.4034 164.163 81.2926 163.795 81.3241H147.115C146.307 81.3241 145.529 81.8928 145.569 82.5611C145.619 82.9263 145.807 83.2584 146.095 83.4886C146.383 83.7189 146.748 83.8297 147.115 83.7982Z" fill="#82DEF3"/>
<path d="M147.644 91.2401H163.366C163.736 91.2096 164.08 91.0414 164.331 90.7688C164.582 90.4963 164.722 90.1392 164.722 89.7686C164.722 89.398 164.582 89.041 164.331 88.7684C164.08 88.4958 163.736 88.3276 163.366 88.2972H147.644C147.447 88.2932 147.25 88.3287 147.066 88.4016C146.882 88.4745 146.715 88.5834 146.574 88.7218C146.433 88.8602 146.32 89.0254 146.244 89.2078C146.167 89.3901 146.128 89.5858 146.128 89.7836C146.141 90.1761 146.307 90.5481 146.59 90.8201C146.873 91.0922 147.251 91.2429 147.644 91.2401Z" fill="#82DEF3"/>
<path d="M224.459 88.6963H224.21V88.1775C224.202 88.0364 224.139 87.9039 224.035 87.8088C223.93 87.7136 223.792 87.6633 223.651 87.6687H216.369C216.227 87.6633 216.09 87.7136 215.985 87.8088C215.881 87.9039 215.818 88.0364 215.81 88.1775V88.6963H215.561V88.1775C215.564 88.0757 215.588 87.9757 215.631 87.8833C215.674 87.7909 215.735 87.708 215.81 87.6393C215.885 87.5706 215.973 87.5175 216.069 87.4832C216.165 87.4489 216.267 87.4339 216.369 87.4393H223.651C223.753 87.4339 223.855 87.4489 223.95 87.4832C224.046 87.5175 224.134 87.5706 224.21 87.6393C224.285 87.708 224.346 87.7909 224.388 87.8833C224.431 87.9757 224.455 88.0757 224.459 88.1775V88.6963Z" fill="#DBDBDB"/>
<path d="M216.558 87.5491H216.309V88.6963H216.558V87.5491Z" fill="#DBDBDB"/>
<path d="M217.356 87.5491H217.107V88.6963H217.356V87.5491Z" fill="#DBDBDB"/>
<path d="M218.144 87.5491H217.895V88.6963H218.144V87.5491Z" fill="#DBDBDB"/>
<path d="M218.932 87.5491H218.683V88.6963H218.932V87.5491Z" fill="#DBDBDB"/>
<path d="M219.721 87.5491H219.471V88.6963H219.721V87.5491Z" fill="#DBDBDB"/>
<path d="M220.509 87.5491H220.259V88.6963H220.509V87.5491Z" fill="#DBDBDB"/>
<path d="M221.297 87.5491H221.047V88.6963H221.297V87.5491Z" fill="#DBDBDB"/>
<path d="M222.085 87.5491H221.835V88.6963H222.085V87.5491Z" fill="#DBDBDB"/>
<path d="M222.873 87.5491H222.624V88.6963H222.873V87.5491Z" fill="#DBDBDB"/>
<path d="M223.661 87.5491H223.412V88.6963H223.661V87.5491Z" fill="#DBDBDB"/>
<path d="M226.005 90.6117H221.347V88.6963H224.748L226.005 90.6117Z" fill="white"/>
<path d="M224.3 93.3452H203.939L199.38 90.6117L200.297 89.8636L200.617 89.6042L200.926 89.3448L201.026 89.265L205.146 85.8732L205.335 85.7135L205.435 85.6437L205.445 85.6337L206.702 84.4965L207.57 83.6984L214.304 83.5687L220.07 83.459L220.12 83.5687L220.249 83.9278H221.496L221.875 84.4965L222.753 85.8432H220.988L220.997 85.8732L222.244 88.6964L222.534 89.3448L222.753 89.8636L223.092 90.6117L223.661 91.8887L224.04 92.7666L224.3 93.3452Z" fill="white"/>
<g opacity="0.2" style="mix-blend-mode:multiply">
<path d="M221.875 84.4964H206.702L207.57 83.6983L214.304 83.5686H220.12L220.249 83.9277H221.496L221.875 84.4964Z" fill="#DBDBDB"/>
</g>
<path d="M209.006 88.6962L211.969 85.873H205.156L201.724 88.6962H209.006Z" fill="#151228"/>
<path d="M207.43 88.6962L210.483 85.873H207.899L204.846 88.6962H207.43Z" fill="white"/>
<path d="M204.427 88.6962L207.48 85.873H206.542L203.49 88.6962H204.427Z" fill="#243852"/>
<path d="M219.122 79.9673H218.733V83.0199H219.122V79.9673Z" fill="#DE5C00"/>
<path d="M219.631 81.0647V80.7056H218.224V81.0647H219.631Z" fill="#0C4D77"/>
<path d="M220.05 80.5259V80.1667H217.805V80.5259H220.05Z" fill="#0C4D77"/>
<path d="M218.733 82.7905H217.825V83.01H218.733V82.7905Z" fill="#253B51"/>
<path d="M219.123 82.7905H218.733V83.0105H219.123V82.7905Z" fill="#DE5C00"/>
<path d="M221.347 88.6962H210.024L212.987 85.873H220.1L221.347 88.6962Z" fill="#151228"/>
<path d="M214.154 88.6962L217.207 85.873H214.443L211.391 88.6962H214.154Z" fill="#243852"/>
<path d="M215.6 88.6962L218.653 85.873H217.705L214.653 88.6962H215.6Z" fill="#243852"/>
<path d="M223.801 93.345L223.761 93.4348H208.418L208.518 93.345L211.381 90.6116H222.035L222.215 91.0006L222.983 92.7664L223.801 93.345Z" fill="#151228"/>
<path d="M210.732 93.4348L213.775 90.6116H212.837L209.784 93.4348H210.732Z" fill="#243852"/>
<path d="M222.215 91.0006L219.581 93.4348H218.633L221.686 90.6116H222.035L222.215 91.0006Z" fill="#243852"/>
<path d="M215.152 93.4348L218.204 90.6116H214.523L211.47 93.4348H215.152Z" fill="#243852"/>
<g opacity="0.2" style="mix-blend-mode:multiply">
<path d="M224.3 93.345H203.939L199.38 90.6116L200.297 89.8634L200.617 89.604H209.784L212.867 91.8885H223.661L224.04 92.7664L224.3 93.345Z" fill="#DBDBDB"/>
</g>
<path d="M233.866 98.5725H195.738C194.806 98.5823 193.884 98.3714 193.048 97.957C192.213 97.5426 191.487 96.9365 190.93 96.1882L190.421 95.4699L187.678 91.6392H209.016L209.435 91.9384L209.665 92.108L211.59 93.5146H231.442L231.781 94.2229L232.779 96.2181L233.866 98.5725Z" fill="white"/>
<g opacity="0.2" style="mix-blend-mode:multiply">
<path d="M233.866 98.5725H195.738C194.806 98.5823 193.884 98.3714 193.048 97.957C192.213 97.5426 191.487 96.9365 190.93 96.1882L190.421 95.4699L187.678 91.6392H209.016L209.435 91.9384L209.665 92.108L211.59 93.5146H231.442L231.781 94.2229H211.72L209.026 92.108H191.878C193.316 93.4083 194.989 94.4238 196.806 95.1008C198.621 95.7991 205.944 96.1682 207.959 96.1682H232.719L233.866 98.5725Z" fill="#DBDBDB"/>
</g>
<path d="M230.973 92.7764H230.734V92.2776C230.726 92.1365 230.663 92.0041 230.559 91.9089C230.454 91.8137 230.317 91.7634 230.175 91.7689H222.883C222.813 91.7662 222.744 91.7772 222.679 91.8014C222.614 91.8255 222.554 91.8623 222.503 91.9095C222.452 91.9568 222.411 92.0136 222.382 92.0768C222.353 92.1399 222.337 92.2082 222.334 92.2776V92.7764H222.085V92.2776C222.089 92.1767 222.112 92.0776 222.155 91.9859C222.197 91.8941 222.257 91.8116 222.331 91.7431C222.405 91.6745 222.492 91.6212 222.587 91.5863C222.681 91.5513 222.782 91.5354 222.883 91.5394H230.175C230.276 91.5354 230.377 91.5513 230.472 91.5863C230.566 91.6212 230.653 91.6745 230.727 91.7431C230.802 91.8116 230.861 91.8941 230.904 91.9859C230.946 92.0776 230.97 92.1767 230.973 92.2776V92.7764Z" fill="#DBDBDB"/>
<path d="M223.102 91.6592H222.853V92.8064H223.102V91.6592Z" fill="#DBDBDB"/>
<path d="M223.891 91.6592H223.641V92.8064H223.891V91.6592Z" fill="#DBDBDB"/>
<path d="M224.689 91.6592H224.439V92.8064H224.689V91.6592Z" fill="#DBDBDB"/>
<path d="M225.477 91.6592H225.228V92.8064H225.477V91.6592Z" fill="#DBDBDB"/>
<path d="M226.265 91.6592H226.016V92.8064H226.265V91.6592Z" fill="#DBDBDB"/>
<path d="M227.053 91.6592H226.803V92.8064H227.053V91.6592Z" fill="#DBDBDB"/>
<path d="M227.841 91.6592H227.592V92.8064H227.841V91.6592Z" fill="#DBDBDB"/>
<path d="M228.629 91.6592H228.38V92.8064H228.629V91.6592Z" fill="#DBDBDB"/>
<path d="M229.417 91.6592H229.168V92.8064H229.417V91.6592Z" fill="#DBDBDB"/>
<path d="M230.205 91.6592H229.956V92.8064H230.205V91.6592Z" fill="#DBDBDB"/>
<path d="M231.223 92.7066H211.85L209.016 90.6117H188.067C187.965 90.6077 187.863 90.6239 187.767 90.6593C187.671 90.6947 187.583 90.7488 187.508 90.8183C187.433 90.8877 187.372 90.9713 187.329 91.0643C187.287 91.1572 187.263 91.2577 187.259 91.3599C187.26 91.3979 187.269 91.4352 187.285 91.4699C187.3 91.5045 187.323 91.5356 187.351 91.5616C187.378 91.5875 187.411 91.6077 187.447 91.621C187.482 91.6344 187.52 91.6405 187.558 91.6392H208.986L211.85 93.7741H231.732C231.769 93.7768 231.807 93.7719 231.842 93.7597C231.878 93.7475 231.911 93.7282 231.939 93.7031C231.967 93.6779 231.989 93.6474 232.005 93.6133C232.021 93.5792 232.03 93.5423 232.031 93.5047C232.034 93.3983 232.015 93.2924 231.975 93.1937C231.935 93.0949 231.876 93.0054 231.8 92.9305C231.724 92.8557 231.634 92.7973 231.535 92.7588C231.435 92.7202 231.329 92.7025 231.223 92.7066Z" fill="#0C4D77"/>
<path d="M209.425 95.47H208.138V96.6671H209.425V95.47Z" fill="#151228"/>
<path d="M209.435 95.47L208.138 96.6671H208.777L209.435 96.0685V95.47Z" fill="#243852"/>
<path d="M211.47 95.47H210.184V96.6671H211.47V95.47Z" fill="#151228"/>
<path d="M211.47 95.47L210.184 96.6671H210.822L211.47 96.0685V95.47Z" fill="#243852"/>
<path d="M213.506 95.47H212.219V96.6671H213.506V95.47Z" fill="#151228"/>
<path d="M213.516 95.47L212.219 96.6671H212.857L213.516 96.0685V95.47Z" fill="#243852"/>
<path d="M219.072 95.47H217.785V96.6671H219.072V95.47Z" fill="#151228"/>
<path d="M219.072 95.47L217.785 96.6671H218.424L219.072 96.0685V95.47Z" fill="#243852"/>
<path d="M221.117 95.47H219.83V96.6671H221.117V95.47Z" fill="#151228"/>
<path d="M221.117 95.47L219.82 96.6671H220.469L221.117 96.0685V95.47Z" fill="#243852"/>
<path d="M223.152 95.47H221.865V96.6671H223.152V95.47Z" fill="#151228"/>
<path d="M223.152 95.47L221.865 96.6671H222.504L223.152 96.0685V95.47Z" fill="#243852"/>
<path d="M225.247 95.47H223.96V96.6671H225.247V95.47Z" fill="#151228"/>
<path d="M225.257 95.47L223.96 96.6671H224.599L225.257 96.0685V95.47Z" fill="#243852"/>
<path d="M227.292 95.47H226.005V96.6671H227.292V95.47Z" fill="#151228"/>
<path d="M227.292 95.47L226.005 96.6671H226.644L227.292 96.0685V95.47Z" fill="#243852"/>
<path d="M224.689 89.8635H200.297L200.926 89.3447H224.319L224.689 89.8635Z" fill="#0C4D77"/>
<path d="M221.526 84.0474H207.141C207.066 84.0475 206.994 84.0183 206.94 83.9662C206.886 83.9141 206.854 83.8431 206.852 83.7681C206.859 83.5634 206.948 83.3701 207.097 83.2301C207.246 83.09 207.445 83.0145 207.65 83.0199H221.007C221.11 83.0159 221.212 83.0321 221.308 83.0675C221.404 83.103 221.492 83.157 221.567 83.2265C221.642 83.2959 221.702 83.3796 221.745 83.4725C221.788 83.5654 221.812 83.6659 221.816 83.7681C221.813 83.8431 221.781 83.9141 221.727 83.9662C221.673 84.0183 221.601 84.0475 221.526 84.0474Z" fill="#0C4D77"/>
<path d="M290.141 84.2072L295.179 81.9925C295.456 81.9517 295.736 81.9317 296.016 81.9327C298.181 81.9327 300.795 83.03 303.518 84.277L290.141 84.2072Z" fill="#0A638B"/>
<path d="M296.017 81.9925C298.102 81.9925 300.616 82.9901 303.239 84.2172L290.43 84.1473L295.189 82.0524C295.463 82.0115 295.74 81.9915 296.017 81.9925ZM296.017 81.8728C295.73 81.8725 295.443 81.8925 295.159 81.9327L289.852 84.267L303.818 84.3468C301.035 83.0599 298.291 81.8728 296.027 81.8728H296.017Z" fill="#476268"/>
<path d="M310.472 85.8731L307.689 84.3667L284.445 84.2271L276.464 85.8731" fill="white"/>
<path d="M315.201 89.644L314.901 91.4396H284.993L276.464 85.873H310.691H311.24L313.205 87.8283H315.969L316.847 89.4943L315.201 89.644Z" fill="#0C4D77"/>
<path d="M280.624 87.4593C280.993 87.4593 281.292 87.2851 281.292 87.0702C281.292 86.8553 280.993 86.6812 280.624 86.6812C280.255 86.6812 279.955 86.8553 279.955 87.0702C279.955 87.2851 280.255 87.4593 280.624 87.4593Z" fill="#CCF1F8"/>
<path d="M289.672 87.4593C290.168 87.4593 290.57 87.2851 290.57 87.0702C290.57 86.8553 290.168 86.6812 289.672 86.6812C289.176 86.6812 288.774 86.8553 288.774 87.0702C288.774 87.2851 289.176 87.4593 289.672 87.4593Z" fill="#CCF1F8"/>
<path d="M293.243 87.4593C293.739 87.4593 294.141 87.2851 294.141 87.0702C294.141 86.8553 293.739 86.6812 293.243 86.6812C292.748 86.6812 292.346 86.8553 292.346 87.0702C292.346 87.2851 292.748 87.4593 293.243 87.4593Z" fill="#CCF1F8"/>
<path d="M280.215 87.0702C280.215 87.1999 280.394 87.3097 280.624 87.3097C280.853 87.3097 281.043 87.1999 281.043 87.0702C281.043 86.9405 280.863 86.8308 280.624 86.8308C280.384 86.8308 280.215 86.9405 280.215 87.0702Z" fill="#99E4F1"/>
<path d="M289.073 87.0702C289.073 87.2099 289.343 87.3196 289.672 87.3196C290.001 87.3196 290.261 87.2099 290.261 87.0702C290.261 86.9305 289.991 86.8208 289.672 86.8208C289.353 86.8208 289.073 86.9305 289.073 87.0702Z" fill="#99E4F1"/>
<path d="M292.645 87.0701C292.645 87.2098 292.914 87.3195 293.243 87.3195C293.573 87.3195 293.832 87.2098 293.832 87.0701C293.832 86.9304 293.563 86.7908 293.293 86.7908C293.024 86.7908 292.645 86.9304 292.645 87.0701Z" fill="#99E4F1"/>
<path d="M307.689 84.3666L303.239 80.895L307.359 79.9373L307.2 79.668H297.064L297.723 80.4361L301.264 80.7853L304.835 84.6859L307.689 84.3666Z" fill="white"/>
<path d="M281.961 89.4644L315.2 89.6439L314.901 91.4396H284.993L281.961 89.4644Z" fill="#F4F7F7"/>
<g opacity="0.3" style="mix-blend-mode:screen">
<path d="M295.378 82.0324L293.154 84.1673H294.391L296.496 82.0125C296.123 81.9843 295.749 81.9909 295.378 82.0324Z" fill="white"/>
</g>
<g opacity="0.3" style="mix-blend-mode:screen">
<path d="M297.284 82.1121L295.428 84.1771H296.286L297.922 82.2418C297.762 82.1919 297.533 82.152 297.284 82.1121Z" fill="white"/>
</g>
<path d="M287.457 83.5586H286.17V84.3467H287.457V83.5586Z" fill="white"/>
<path opacity="0.4" d="M286.809 83.5586H286.17V84.237H286.809V83.5586Z" fill="#0C4D77"/>
<path d="M315.071 90.4021L293.603 91.4396L283.407 90.4021L284.993 91.4396H314.901L315.071 90.4021Z" fill="#F4F7F7"/>
<path d="M306.302 84.8057H279.387V85.0052H306.302V84.8057Z" fill="#B7B7B7"/>
<path d="M284.844 85.0051H284.594V85.873H284.844V85.0051Z" fill="#B7B7B7"/>
<path d="M281.96 85.0051H281.711V85.873H281.96V85.0051Z" fill="#B7B7B7"/>
<path d="M287.717 85.0051H287.467V85.873H287.717V85.0051Z" fill="#B7B7B7"/>
<path d="M290.59 85.0051H290.34V85.873H290.59V85.0051Z" fill="#B7B7B7"/>
<path d="M293.473 85.0051H293.223V85.873H293.473V85.0051Z" fill="#B7B7B7"/>
<path d="M296.346 85.0051H296.097V85.873H296.346V85.0051Z" fill="#B7B7B7"/>
<path d="M299.219 85.0051H298.97V85.873H299.219V85.0051Z" fill="#B7B7B7"/>
<path d="M302.092 85.0051H301.843V85.873H302.092V85.0051Z" fill="#B7B7B7"/>
<path d="M304.975 85.0051H304.726V85.873H304.975V85.0051Z" fill="#B7B7B7"/>
<path d="M297.433 80.0969L301.843 80.3762L305.414 84.3467H304.516L301.264 80.7853L297.723 80.4361L297.433 80.0969Z" fill="#DDDDDD"/>
<path d="M315.101 90.2325H283.138L281.961 89.4644H315.26L315.101 90.2325Z" fill="#B7B7B7"/>
<path d="M306.671 89.9432L316.797 90.013C316.94 90.013 317.077 89.9563 317.178 89.8553C317.279 89.7542 317.335 89.6172 317.335 89.4743C317.335 89.4028 317.321 89.3319 317.293 89.2659C317.266 89.1998 317.225 89.14 317.174 89.0898C317.123 89.0397 317.062 89.0002 316.996 88.9737C316.929 88.9473 316.858 88.9343 316.787 88.9356L306.661 89.195C306.565 89.1976 306.474 89.2376 306.406 89.3066C306.339 89.3755 306.302 89.4679 306.302 89.5641C306.301 89.6134 306.309 89.6625 306.327 89.7084C306.345 89.7544 306.372 89.7963 306.406 89.8316C306.441 89.8669 306.482 89.895 306.527 89.9142C306.573 89.9334 306.622 89.9432 306.671 89.9432Z" fill="#F4F7F7"/>
<g opacity="0.65" style="mix-blend-mode:multiply">
<path d="M306.262 89.5742C306.262 89.6721 306.301 89.766 306.37 89.8352C306.439 89.9044 306.533 89.9433 306.631 89.9433L316.757 90.0132C316.882 90.0111 317.002 89.9665 317.098 89.8867C317.194 89.8069 317.26 89.6967 317.285 89.5742H306.262Z" fill="#DDDDDD"/>
</g>
<path d="M297.433 88.1377H283.138V88.3272H297.433V88.1377Z" fill="#F4F7F7"/>
<g opacity="0.3" style="mix-blend-mode:overlay">
<path d="M311.779 86.4117H277.282L276.464 85.873H311.25L311.779 86.4117Z" fill="#0A638B"/>
</g>
</g>
<defs>
<clipPath id="clip0_1_1031">
<rect width="415" height="415" fill="white"/>
</clipPath>
</defs>
</svg>
