<svg width="415" height="415" viewBox="0 0 415 415" fill="none" xmlns="http://www.w3.org/2000/svg">
<g clip-path="url(#clip0_1_1214)">
<path d="M415 0H0V415H415V0Z" fill="#F0FEFF"/>
<path d="M217.955 85.9428C248.741 85.853 286.679 94.582 311.489 123.981C323.131 137.768 328.967 150.727 331.441 162.708C342.92 172.31 350.574 185.711 353.012 200.476C355.451 215.241 352.512 230.391 344.729 243.174C354.702 246.981 363.536 253.272 370.396 261.45C377.255 269.629 381.912 279.424 383.924 289.907C385.937 300.39 385.238 311.213 381.895 321.35C378.552 331.487 372.675 340.603 364.821 347.832C364.422 348.49 364.172 348.829 364.172 348.829L394.859 375.605H16.191C26.0676 372.799 35.6493 369.044 44.802 364.392C39.8628 360.035 36.1294 354.479 33.9617 348.26C31.7939 342.04 31.265 335.367 32.4259 328.884C33.5868 322.401 36.3983 316.326 40.5895 311.246C44.7806 306.165 50.21 302.25 56.3542 299.877C49.2361 292.951 43.816 284.473 40.5175 275.104C37.219 265.736 36.1315 255.732 37.3398 245.874C38.5481 236.016 42.0197 226.571 47.4831 218.277C52.9466 209.983 60.2539 203.065 68.8341 198.063C63.7208 187.419 61.9269 175.484 63.6856 163.808C65.4442 152.132 70.6741 141.255 78.6957 132.59C86.7172 123.925 97.1595 117.873 108.666 115.22C120.172 112.568 132.21 113.438 143.215 117.716C151.405 107.74 161.281 101.016 170.589 95.1606C178.031 90.4719 196.207 86.0027 217.955 85.9428Z" fill="#CCF1F8"/>
<path d="M53.7006 254.158C70.3106 254.158 84.8555 257.659 93.1755 267.186C122.764 301.104 117.327 317.505 153.56 320.059C189.793 322.613 213.915 313.904 227.262 344.779C238.396 370.527 275.227 359.594 293.872 375.705H16.191C26.0676 372.899 35.6493 369.144 44.802 364.492C39.8628 360.135 36.1294 354.579 33.9617 348.359C31.7939 342.14 31.265 335.467 32.4259 328.984C33.5868 322.501 36.3983 316.426 40.5895 311.345C44.7806 306.265 50.21 302.35 56.3542 299.977C44.2453 288.149 37.2635 272.039 36.9111 255.115C42.4786 254.478 48.0768 254.145 53.6806 254.118L53.7006 254.158Z" fill="#CCF1F8"/>
<path d="M82.0523 200.417H117.856C124.101 200.417 130.526 205.405 132.261 211.71L154.089 290.709C155.815 296.954 152.173 301.992 145.918 301.992H110.115C103.87 301.992 97.4452 296.954 95.7094 290.709L73.882 211.71C72.1562 205.505 75.8173 200.417 82.0523 200.417Z" fill="#03A5C8"/>
<path d="M108.588 288.844L93.2154 371.415C92.7964 373.709 95.1008 375.625 97.4352 375.625H98.8518C100.063 375.585 101.228 375.153 102.173 374.393C103.117 373.634 103.79 372.589 104.089 371.415L128.031 288.844H108.588Z" fill="#0779A0"/>
<path d="M95.0011 297.284H162.269C163.589 297.304 164.892 297.586 166.103 298.111C167.314 298.637 168.41 299.397 169.326 300.347C170.243 301.297 170.963 302.419 171.445 303.648C171.927 304.877 172.162 306.189 172.135 307.509V308.596C172.162 309.916 171.927 311.229 171.445 312.458C170.963 313.687 170.243 314.809 169.326 315.759C168.41 316.709 167.314 317.468 166.103 317.994C164.892 318.52 163.589 318.801 162.269 318.822H95.0011C93.681 318.801 92.378 318.52 91.1669 317.994C89.9558 317.468 88.8605 316.709 87.9438 315.759C87.027 314.809 86.307 313.687 85.825 312.458C85.3429 311.229 85.1084 309.916 85.1348 308.596V307.509C85.1084 306.189 85.3429 304.877 85.825 303.648C86.307 302.419 87.027 301.297 87.9438 300.347C88.8605 299.397 89.9558 298.637 91.1669 298.111C92.378 297.586 93.681 297.304 95.0011 297.284Z" fill="#01BBDC"/>
<path d="M124.191 158.418C124.191 158.418 117.457 186.66 107.9 201.125C98.343 215.591 105.256 226.404 118.465 225.527C131.673 224.649 158.089 216.598 158.089 216.598L168.534 213.077C168.534 213.077 175.328 201.754 168.284 192.945C161.241 184.136 161.241 168.005 161.241 168.005C161.241 168.005 131.922 151.276 124.191 158.388V158.418Z" fill="#3D3D3D"/>
<path d="M143.774 195.18C141.52 195.185 139.272 195.406 137.06 195.838C131.294 202.751 119.951 206.991 113.576 213.715C108.947 218.783 95.1607 243.064 92.3175 248.052C92.1554 248.333 92.0089 248.623 91.8786 248.92L107.661 250.526L114.644 240.121L109.247 273.471H151.016L160.354 251.394C164.474 250.397 166.908 248.332 167.826 245.628L175.687 253.709C175.687 253.709 176.066 254.078 176.126 253.998L177.462 256.362L192.426 255.365C189.054 246.147 184.645 237.238 181.034 229.327C179.298 225.517 176.156 218.404 173.592 215.571C166.219 207.45 160.942 204.597 156.692 200.068C153.869 196.028 148.253 195.08 143.724 195.14L143.774 195.18Z" fill="#01BBDC"/>
<path d="M159.526 171.148L162.129 177.732C171.287 176.744 167.077 155.964 159.526 171.148Z" fill="#F7A491"/>
<path d="M138.536 177.732C138.536 177.732 139.185 186.71 139.025 190.591C138.865 194.471 138.935 196.576 138.935 196.576L148.482 205.255L153.47 200.607L150.777 190.551L138.536 177.732Z" fill="#F7A491"/>
<path d="M138.536 177.732L150.777 190.591L152.772 198.192C150.777 198.611 148.622 198.532 147.036 197.025C143.295 193.444 142.157 184.326 142.157 184.326L138.536 177.732Z" fill="#F47458"/>
<path d="M138.536 177.732C129.368 176.734 133.548 155.964 141.14 171.148C143.135 167.756 147.415 162.788 145.13 156.244C151.954 158.468 157.61 160.184 164.923 158.239C167.846 190.112 151.844 209.485 138.556 177.772L138.536 177.732Z" fill="#F7A491"/>
<path d="M138.935 173.422C138.71 171.907 138.094 170.477 137.15 169.272C135.803 167.596 134.675 169.591 134.675 169.591C135.036 169.497 135.417 169.522 135.763 169.662C136.108 169.802 136.398 170.05 136.591 170.369C137.279 171.507 134.965 172.933 137.12 174.36C139.274 175.786 138.945 173.462 138.945 173.462L138.935 173.422Z" fill="#F69CB3"/>
<path d="M148.482 205.295L138.945 195.758V192.486C137.676 193.346 136.691 194.564 136.115 195.985C135.54 197.406 135.4 198.966 135.713 200.467L141.699 212.977L148.482 205.295Z" fill="white"/>
<path d="M153.47 200.647L151.824 194.531C155.306 195.359 158.518 200.247 157.71 203.51C157.451 204.507 155.136 212.757 155.136 212.757L148.482 205.345L153.47 200.647Z" fill="white"/>
<path d="M164.903 159.775C162.828 167.526 149.53 177.841 141.958 174.52L141.11 171.148C141.11 171.148 138.915 166.299 136.232 165.631C133.548 164.963 124.161 158.418 124.161 158.418C124.161 158.418 127.463 145.45 135.763 139.683C144.063 133.917 157.012 139.913 164.553 144.502C168.893 147.145 167.816 152.632 167.816 152.632C169.761 156.902 172.973 160.423 170.33 165.461C167.686 170.499 165.002 171.347 165.002 171.347C165.258 167.492 165.215 163.623 164.873 159.775H164.903Z" fill="#282828"/>
<path opacity="0.2" d="M160.354 251.394C156.603 251.394 151.824 251.025 146.966 242.865C143.115 246.765 138.486 250.466 129.119 248.651L153.39 267.765L160.354 251.394Z" fill="black"/>
<path opacity="0.2" d="M167.826 245.618V237.807L175.687 253.699L167.826 245.618Z" fill="black"/>
<path d="M232.52 223.342C230.604 223.342 221.885 228.968 221.885 228.968C221.706 228.878 221.436 224.898 219.441 226.784C217.985 228.03 216.887 232.36 216.818 232.52C216.419 233.517 215.89 234.704 215.461 235.512C205.994 240.191 187.428 250.476 177.462 256.322C179.458 261.31 185.962 263.625 189.892 262.118C201.445 257.559 209.575 249.199 219.341 241.079L227.272 238.086C228.43 237.378 231.153 230.515 232.56 227.901C233.966 225.287 234.176 223.761 232.819 223.362H232.679L232.52 223.342Z" fill="#F7A491"/>
<path d="M177.462 256.382L175.687 253.729L189.543 242.805L190.291 249.03L177.462 256.382Z" fill="white"/>
<path opacity="0.2" d="M114.594 240.121L115.971 235.004L116.868 231.622L104.089 245.409L110.075 247.025L114.594 240.121Z" fill="black"/>
<path d="M98.8917 243.414C94.2928 245.808 91.699 253.519 94.5222 256.642C102.932 265.72 119.462 265.82 130.535 271.915L131.054 273.451H149.959C150.248 273.35 150.506 273.174 150.707 272.942C151.535 271.785 150.328 270.688 147.714 269.531C140.96 265.65 138.925 264.543 133.857 265.82C124.64 261.29 116.669 255.844 107.671 250.506C103.91 248.292 101.495 245.489 98.8917 243.414Z" fill="#F7A491"/>
<path d="M107.661 250.526L110.125 247.015L91.1803 240.421L91.8786 248.9L107.661 250.526Z" fill="white"/>
<path d="M199.809 263.834C199.562 263.833 199.317 263.881 199.089 263.974C198.861 264.068 198.654 264.206 198.479 264.381C198.305 264.555 198.167 264.762 198.073 264.99C197.979 265.219 197.932 265.463 197.933 265.71V268.284C197.933 268.781 198.131 269.258 198.482 269.61C198.834 269.961 199.311 270.159 199.809 270.159H202.392C202.89 270.159 203.367 269.961 203.718 269.61C204.07 269.258 204.268 268.781 204.268 268.284V265.71C204.269 265.463 204.222 265.219 204.128 264.99C204.034 264.762 203.896 264.555 203.721 264.381C203.547 264.206 203.34 264.068 203.112 263.974C202.883 263.881 202.639 263.833 202.392 263.834H199.809ZM191.419 263.834C191.172 263.833 190.928 263.881 190.699 263.974C190.471 264.068 190.264 264.206 190.09 264.381C189.915 264.555 189.777 264.762 189.683 264.99C189.59 265.219 189.542 265.463 189.543 265.71V268.284C189.543 268.781 189.741 269.258 190.093 269.61C190.444 269.961 190.921 270.159 191.419 270.159H194.003C194.248 270.159 194.492 270.11 194.719 270.016C194.946 269.922 195.152 269.783 195.325 269.609C195.499 269.435 195.636 269.228 195.729 269C195.822 268.773 195.869 268.529 195.868 268.284V265.71C195.871 265.464 195.824 265.219 195.732 264.991C195.639 264.763 195.502 264.556 195.328 264.381C195.155 264.207 194.948 264.068 194.72 263.974C194.493 263.881 194.249 263.833 194.003 263.834H191.419ZM183.298 263.834C183.052 263.833 182.807 263.881 182.579 263.974C182.351 264.068 182.144 264.206 181.969 264.381C181.795 264.555 181.657 264.762 181.563 264.99C181.469 265.219 181.422 265.463 181.423 265.71V268.284C181.423 268.781 181.62 269.258 181.972 269.61C182.324 269.961 182.801 270.159 183.298 270.159H185.882C186.38 270.159 186.857 269.961 187.208 269.61C187.56 269.258 187.758 268.781 187.758 268.284V265.71C187.759 265.463 187.711 265.219 187.618 264.99C187.524 264.762 187.386 264.555 187.211 264.381C187.037 264.206 186.83 264.068 186.601 263.974C186.373 263.881 186.129 263.833 185.882 263.834H183.298ZM174.978 263.834C174.732 263.833 174.487 263.881 174.259 263.974C174.031 264.068 173.824 264.206 173.649 264.381C173.475 264.555 173.337 264.762 173.243 264.99C173.149 265.219 173.102 265.463 173.103 265.71V268.284C173.103 268.781 173.3 269.258 173.652 269.61C174.004 269.961 174.481 270.159 174.978 270.159H177.572C178.07 270.159 178.547 269.961 178.898 269.61C179.25 269.258 179.448 268.781 179.448 268.284V265.71C179.449 265.463 179.401 265.219 179.308 264.99C179.214 264.762 179.076 264.555 178.901 264.381C178.727 264.206 178.52 264.068 178.291 263.974C178.063 263.881 177.819 263.833 177.572 263.834H174.978ZM166.579 263.834C166.332 263.833 166.088 263.881 165.861 263.974C165.633 264.068 165.427 264.207 165.253 264.381C165.079 264.556 164.942 264.763 164.85 264.991C164.757 265.219 164.71 265.464 164.713 265.71V268.284C164.712 268.529 164.759 268.773 164.852 269C164.945 269.228 165.083 269.435 165.256 269.609C165.429 269.783 165.635 269.922 165.862 270.016C166.089 270.11 166.333 270.159 166.579 270.159H169.162C169.66 270.159 170.137 269.961 170.489 269.61C170.84 269.258 171.038 268.781 171.038 268.284V265.71C171.039 265.463 170.992 265.219 170.898 264.99C170.804 264.762 170.666 264.555 170.491 264.381C170.317 264.206 170.11 264.068 169.882 263.974C169.654 263.881 169.409 263.833 169.162 263.834H166.579ZM158.468 263.834C158.222 263.833 157.977 263.881 157.749 263.974C157.521 264.068 157.313 264.206 157.139 264.381C156.965 264.555 156.827 264.762 156.733 264.99C156.639 265.219 156.591 265.463 156.593 265.71V268.284C156.593 268.781 156.79 269.258 157.142 269.61C157.494 269.961 157.971 270.159 158.468 270.159H161.042C161.539 270.159 162.016 269.961 162.368 269.61C162.72 269.258 162.917 268.781 162.917 268.284V265.71C162.919 265.463 162.871 265.219 162.777 264.99C162.684 264.762 162.545 264.555 162.371 264.381C162.197 264.206 161.989 264.068 161.761 263.974C161.533 263.881 161.289 263.833 161.042 263.834H158.468Z" fill="#0779A0"/>
<path d="M205.275 265.929H153.889C153.48 265.928 153.075 266.008 152.696 266.163C152.318 266.319 151.974 266.549 151.685 266.838C151.396 267.127 151.167 267.471 151.011 267.849C150.855 268.227 150.775 268.633 150.776 269.042V270.349C150.775 270.758 150.855 271.164 151.01 271.543C151.166 271.922 151.395 272.266 151.685 272.556C151.974 272.846 152.317 273.076 152.696 273.233C153.074 273.39 153.479 273.471 153.889 273.471H205.275C205.685 273.471 206.09 273.39 206.469 273.233C206.847 273.076 207.19 272.846 207.48 272.556C207.769 272.266 207.998 271.922 208.154 271.543C208.309 271.164 208.389 270.758 208.388 270.349V269.042C208.389 268.633 208.309 268.227 208.153 267.849C207.997 267.471 207.768 267.127 207.479 266.838C207.19 266.549 206.846 266.319 206.468 266.163C206.09 266.008 205.684 265.928 205.275 265.929Z" fill="#67D6EA"/>
<path d="M66.41 288.844L51.037 371.415C50.6081 373.709 52.9225 375.625 55.2569 375.625H56.6735C57.8845 375.585 59.0498 375.153 59.9943 374.393C60.9387 373.634 61.6113 372.589 61.9108 371.415L85.8531 288.844H66.41Z" fill="#03A5C8"/>
<path d="M150.138 318.852V362.247H137.09V318.852H150.138Z" fill="#01BBDC"/>
<path d="M153.311 362.247C154.633 362.262 155.938 362.541 157.152 363.065C158.366 363.59 159.463 364.35 160.38 365.303C161.297 366.255 162.016 367.38 162.494 368.613C162.973 369.845 163.201 371.161 163.167 372.482V375.625H124.061V372.482C124.033 371.162 124.267 369.85 124.747 368.62C125.228 367.391 125.947 366.268 126.863 365.317C127.779 364.366 128.873 363.605 130.084 363.079C131.294 362.552 132.597 362.269 133.917 362.247H153.311Z" fill="#0779A0"/>
<path d="M181.622 134.905C181.622 146.457 186.211 157.537 194.379 165.706C202.547 173.876 213.625 178.467 225.177 178.47C233.794 178.472 242.218 175.919 249.384 171.133C256.549 166.347 262.134 159.544 265.433 151.583C268.732 143.623 269.596 134.863 267.916 126.412C266.237 117.96 262.088 110.197 255.996 104.103C249.904 98.0096 242.141 93.8595 233.69 92.1777C225.239 90.4959 216.479 91.3581 208.518 94.6551C200.557 97.9521 193.752 103.536 188.965 110.7C184.178 117.865 181.622 126.288 181.622 134.905Z" fill="#03A5C8"/>
<path d="M304.506 267.485C305.283 267.483 306.053 267.634 306.771 267.929C307.489 268.225 308.142 268.66 308.692 269.209C309.241 269.757 309.677 270.409 309.974 271.127C310.271 271.845 310.423 272.614 310.422 273.391V273.471H251.324V273.391C251.323 272.614 251.475 271.845 251.772 271.127C252.069 270.409 252.505 269.757 253.055 269.209C253.604 268.66 254.257 268.225 254.975 267.929C255.694 267.634 256.463 267.483 257.24 267.485H304.506Z" fill="#03A5C8"/>
<path d="M278.269 288.844L293.642 371.415C294.071 373.709 291.767 375.625 289.433 375.625H288.016C286.804 375.586 285.638 375.155 284.694 374.395C283.749 373.636 283.077 372.59 282.779 371.415L258.836 288.844H278.269Z" fill="#0779A0"/>
<path d="M345.039 273.471H47.3758C46.7877 273.468 46.2049 273.582 45.6609 273.806C45.1169 274.029 44.6225 274.358 44.2062 274.774C43.7899 275.189 43.4598 275.683 43.2351 276.226C43.0103 276.77 42.8953 277.352 42.8966 277.94V284.993C42.8953 285.58 43.01 286.162 43.2341 286.705C43.4583 287.248 43.7874 287.741 44.2027 288.156C44.618 288.572 45.1112 288.901 45.654 289.125C46.1968 289.349 46.7786 289.464 47.3658 289.462H345.039C345.626 289.464 346.208 289.349 346.75 289.125C347.293 288.901 347.786 288.572 348.202 288.156C348.617 287.741 348.946 287.248 349.17 286.705C349.394 286.162 349.509 285.58 349.508 284.993V277.94C349.509 277.353 349.394 276.771 349.17 276.228C348.946 275.686 348.617 275.192 348.202 274.777C347.786 274.362 347.293 274.033 346.75 273.808C346.208 273.584 345.626 273.47 345.039 273.471Z" fill="#03A5C8"/>
<path d="M261.37 159.126C260.722 160.124 260.043 161.062 259.325 161.99C257.514 164.26 255.486 166.348 253.27 168.224C252.152 169.162 250.995 170.04 249.798 170.858C248.601 171.676 247.364 172.434 246.087 173.133C244.81 173.831 243.503 174.459 242.166 175.028C240.829 175.596 239.464 176.096 238.076 176.524C236.693 176.957 235.286 177.316 233.856 177.602C231.006 178.176 228.105 178.467 225.197 178.47C224.2 178.47 223.142 178.47 222.125 178.36C219.224 178.149 216.35 177.655 213.545 176.884C212.149 176.491 210.772 176.032 209.415 175.507C208.056 174.983 206.724 174.39 205.425 173.731C204.128 173.073 202.871 172.345 201.644 171.566C200.736 170.958 199.848 170.329 198.981 169.661C198.223 169.141 197.509 168.561 196.846 167.925C196.157 167.357 195.489 166.768 194.85 166.159C194.022 165.331 193.214 164.474 192.456 163.586C193.943 161.76 196.277 159.027 199.749 154.757C205.914 147.065 211.999 148.522 216.379 144.462C219.471 140.621 221.696 139.863 226.195 140.182C229.916 140.461 229.886 139.873 229.886 139.873C232.685 141.269 235.563 142.502 238.505 143.564C244.012 145.499 244.96 145.409 248.751 147.245C252.541 149.081 258.377 153.47 261.37 159.126Z" fill="#01BBDC"/>
<path d="M317.295 188.865H236.021C233.902 188.892 231.87 189.707 230.319 191.151C228.768 192.595 227.81 194.565 227.631 196.676L223.831 247.992C223.737 248.994 223.855 250.004 224.177 250.957C224.5 251.91 225.02 252.784 225.704 253.522C226.387 254.26 227.219 254.846 228.144 255.24C229.069 255.635 230.067 255.831 231.073 255.814H312.347C314.467 255.784 316.5 254.967 318.051 253.521C319.602 252.076 320.559 250.105 320.737 247.992L324.538 196.676C324.632 195.675 324.514 194.665 324.191 193.713C323.868 192.761 323.348 191.887 322.664 191.15C321.981 190.413 321.149 189.828 320.224 189.434C319.299 189.041 318.301 188.847 317.295 188.865Z" fill="#03A5C8"/>
<path d="M280.215 224.389C283.207 224.389 286.45 226.265 287.198 228.629L300.536 273.471H280.883L267.545 228.629C266.847 226.265 268.543 224.389 271.535 224.389H280.215Z" fill="#0779A0"/>
<path d="M192.436 163.606L189.982 179.847L210.932 166.878L192.436 163.606Z" fill="#01BBDC"/>
<path d="M334.703 288.844L350.076 371.415C350.505 373.709 348.201 375.625 345.867 375.625H344.44C343.229 375.585 342.064 375.153 341.119 374.393C340.175 373.634 339.502 372.589 339.203 371.415L315.26 288.844H334.703Z" fill="#03A5C8"/>
<path d="M261.42 246.476V251.594H256.881V246.476H261.42Z" fill="#CCF1F8"/>
<path d="M253.389 246.476V251.594H248.84V246.476H253.389Z" fill="#CCF1F8"/>
<path d="M246.406 246.476V251.594H241.817V246.476H246.406Z" fill="#CCF1F8"/>
<path d="M227.312 103.371C227.312 103.371 231.542 103.141 232.669 108.439C233.797 113.736 229.128 123.812 229.128 123.812C229.916 131.014 227.492 136.78 221.217 130.056C218.374 126.794 216.708 108.798 216.708 108.798C216.708 108.798 205.305 110.563 200.597 106.972C195.888 103.381 190.87 92.6466 197.384 90.6115C203.899 88.5765 205.365 93.2253 219.411 92.6067C226.734 92.2975 229.766 98.303 227.312 103.341V103.371Z" fill="#282828"/>
<path d="M225.058 126.745L231.442 140.96L221.895 150.507L216.907 145.849L215.012 135.025L225.058 126.745Z" fill="#F6C6C0"/>
<path d="M226.923 126.575L215.88 133.678L216.359 144.502C221.596 144.751 223.901 132.96 223.901 132.96L226.923 126.575Z" fill="#F69CB3"/>
<path d="M221.875 150.507L231.442 140.96L229.786 137.319C230.601 137.32 231.405 137.494 232.147 137.829C232.89 138.164 233.552 138.653 234.091 139.263C234.631 139.873 235.034 140.59 235.276 141.368C235.518 142.145 235.591 142.965 235.493 143.774L229.916 158.388L221.875 150.507Z" fill="white"/>
<path d="M216.897 145.849L216.099 140.861C212.687 141.958 210.393 145.031 211.44 148.183C211.77 149.111 216.568 159.157 216.568 159.157L221.875 150.567L216.897 145.849Z" fill="white"/>
<path d="M205.944 119.931L203.33 126.515C194.172 125.498 198.432 104.748 205.944 119.931Z" fill="#F69CB3"/>
<path d="M201.993 105.187C200.048 105.695 198.38 106.945 197.344 108.668C195.708 111.511 201.056 120.729 201.056 120.729L201.993 105.187Z" fill="#3D3D3D"/>
<path d="M226.923 126.575C236.081 125.577 231.911 104.807 224.339 119.981C222.344 116.579 218.085 111.601 220.399 105.017C213.575 107.232 207.909 108.937 200.597 106.932C197.604 138.835 213.545 158.249 226.923 126.575Z" fill="#F6C6C0"/>
<path d="M226.524 122.255C226.768 120.742 227.389 119.315 228.33 118.105C229.677 116.489 230.814 118.445 230.814 118.445C230.454 118.346 230.073 118.367 229.727 118.506C229.381 118.645 229.09 118.893 228.898 119.213C228.2 120.35 230.515 121.777 228.36 123.203C226.205 124.63 226.524 122.305 226.524 122.305V122.255Z" fill="#F69CB3"/>
<path d="M138.047 176.205C138.293 176.171 138.543 176.23 138.748 176.371C138.952 176.511 139.097 176.722 139.155 176.964C139.761 179.027 140.723 180.968 141.998 182.7C143.13 184.387 144.722 185.714 146.586 186.522C148.45 187.33 150.507 187.586 152.513 187.259C152.773 187.222 153.038 187.289 153.249 187.446C153.46 187.603 153.6 187.837 153.64 188.097C153.66 188.227 153.654 188.359 153.622 188.486C153.591 188.614 153.535 188.734 153.457 188.839C153.379 188.945 153.281 189.034 153.169 189.102C153.056 189.17 152.932 189.215 152.802 189.234C150.446 189.581 148.041 189.265 145.854 188.323C143.668 187.38 141.787 185.848 140.422 183.897C138.994 181.955 137.92 179.777 137.249 177.462C137.214 177.336 137.205 177.204 137.221 177.074C137.237 176.944 137.279 176.818 137.344 176.704C137.409 176.59 137.496 176.49 137.599 176.41C137.703 176.329 137.821 176.27 137.948 176.235H138.077L138.047 176.205Z" fill="#01BBDC"/>
<path d="M155.924 185.862L153.57 186.181C153.319 186.215 153.077 186.297 152.858 186.424C152.639 186.551 152.447 186.72 152.294 186.921C152.14 187.122 152.027 187.351 151.962 187.596C151.897 187.84 151.881 188.095 151.914 188.346C151.947 188.597 152.03 188.839 152.157 189.058C152.284 189.277 152.452 189.469 152.653 189.622C152.854 189.776 153.084 189.889 153.328 189.954C153.573 190.019 153.828 190.035 154.079 190.002L156.443 189.683C156.95 189.614 157.408 189.347 157.718 188.94C158.028 188.533 158.163 188.02 158.094 187.513C158.025 187.006 157.758 186.548 157.351 186.238C156.944 185.929 156.431 185.793 155.924 185.862Z" fill="#0779A0"/>
<path d="M137.529 167.177C137.529 167.177 134.087 154.787 140.142 145.43C146.198 136.072 159.675 141.719 159.675 141.719C159.164 139.768 158.129 137.995 156.682 136.591C154.248 134.157 140.871 133.877 134.127 137.519C127.383 141.16 125.248 164.005 130.136 171.227C135.025 178.45 137.499 167.177 137.499 167.177H137.529Z" fill="#99E4F1"/>
<path d="M127.094 173.991C127.762 178.979 131.952 182.57 136.431 181.972C140.91 181.373 144.013 176.824 143.335 171.816C142.666 166.828 138.486 163.247 133.997 163.835C129.508 164.424 126.415 168.993 127.094 173.991Z" fill="#01BBDC"/>
<path d="M107.301 288.844C106.194 293.932 105.306 302.621 110.294 307.659C117.726 315.081 162.299 318.931 162.299 318.931L155.834 334.614L145.649 359.274H157.211L176.046 334.614L184.446 323.64C195.958 303.688 171.227 294.71 149.131 288.874L107.301 288.844Z" fill="#0779A0"/>
<path opacity="0.1" d="M176.086 334.614H155.864L145.649 359.274H157.211L176.086 334.614Z" fill="black"/>
<path d="M149.171 288.844C158.125 291.154 166.76 294.561 174.879 298.99C183.797 303.978 189.743 310.123 186.401 319.52L188.815 321.575L197.205 335.651L211.57 359.733L221.396 355.164C221.396 355.164 216.319 342.036 210.293 328.099C207.091 320.697 204.058 313.624 202.432 309.714C197.763 298.421 178.699 288.844 178.699 288.844H149.171Z" fill="#0779A0"/>
<path opacity="0.1" d="M210.293 328.099L197.205 335.651L211.57 359.733L221.397 355.164C221.397 355.164 216.319 342.036 210.293 328.099Z" fill="black"/>
<path d="M143.055 366.437L145.689 359.274H157.251L151.635 369.25L143.055 366.437Z" fill="#F7A491"/>
<path d="M155.735 361.938L151.744 371.654L143.414 370.886L143.015 366.437L144.651 362.127L155.735 361.938Z" fill="white"/>
<path d="M169.94 375.625H139.484L143.055 366.437C147.654 373.221 152.463 360.282 155.805 364.322C155.805 364.322 160.094 370.128 162.628 370.188C167.756 370.188 170.878 370.807 169.94 375.625Z" fill="#3A3A3A"/>
<path opacity="0.1" d="M149.171 288.844C156.355 290.629 163.393 292.964 170.22 295.827L164.125 288.844H149.171Z" fill="black"/>
<path opacity="0.1" d="M185.782 307.758C186.742 309.553 187.294 311.538 187.401 313.57C187.508 315.603 187.167 317.634 186.401 319.52L188.815 321.575L194.581 331.242C196.786 319.939 189.683 311.459 185.782 307.758Z" fill="black"/>
<path d="M214.972 365.569L211.57 359.733C214.822 358.157 218.104 356.65 221.397 355.164L225.387 364.482L214.972 365.569Z" fill="#F7A491"/>
<path d="M225.048 358.765L226.574 366.547L218.793 369.609L214.972 365.569L213.266 362.656L225.048 358.765Z" fill="white"/>
<path d="M244.67 363.654L218.843 375.625L214.972 365.569C222.135 369.559 220.239 356.661 225.048 358.765C225.048 358.765 233.308 361.429 235.592 360.352C240.171 358.037 243.334 358.935 244.67 363.654Z" fill="#3A3A3A"/>
<path d="M232.669 123.792L228.759 121.527C228.459 121.357 228.129 121.248 227.787 121.206C227.444 121.164 227.097 121.19 226.766 121.283C226.434 121.376 226.123 121.533 225.852 121.746C225.582 121.959 225.356 122.224 225.187 122.525L218.523 134.067C218.352 134.366 218.242 134.697 218.199 135.039C218.157 135.382 218.182 135.729 218.275 136.061C218.368 136.394 218.526 136.704 218.74 136.975C218.954 137.246 219.219 137.471 219.521 137.638L223.432 139.893C223.731 140.064 224.062 140.175 224.404 140.217C224.746 140.26 225.094 140.234 225.426 140.141C225.758 140.048 226.069 139.89 226.34 139.676C226.61 139.463 226.836 139.197 227.003 138.895L233.667 127.363C233.837 127.063 233.946 126.733 233.988 126.391C234.03 126.049 234.004 125.702 233.911 125.37C233.818 125.038 233.661 124.728 233.448 124.457C233.235 124.186 232.97 123.96 232.669 123.792Z" fill="#0779A0"/>
<path d="M222.554 123.582H222.693C224.13 123.672 230.944 131.294 230.944 131.294C230.944 131.294 232.29 128.061 233.278 129.558C234.266 131.054 234.435 135.803 234.445 135.962C234.592 136.984 234.846 137.987 235.203 138.955C238.196 150.707 241.588 158.857 243.713 166.13C244.311 167.866 245.528 170.409 246.576 172.953C242.127 175.667 236.909 176.944 233.038 177.822C228.809 167.696 228.051 148.951 227.412 141.399C224.549 139.085 220.369 135.753 219.731 132.421C219.421 130.346 221.865 128.999 221.596 127.712C221.057 125.099 221.237 123.582 222.594 123.582H222.554Z" fill="#F6C6C0"/>
<path d="M235.203 138.965L226.345 141.788L226.873 147.026L236.55 142.856L235.203 138.965Z" fill="white"/>
<path opacity="0.2" d="M229.886 153.46C229.886 153.46 232.42 156.283 233.098 157.351C233.777 158.418 236.6 163.965 239.084 168.544C240.431 171.088 239.593 174.051 238.505 176.395L238.106 176.525C236.723 176.957 235.316 177.316 233.886 177.602C232.46 177.891 231.023 178.101 229.577 178.25C228.132 178.399 226.68 178.472 225.227 178.47C224.649 178.47 224.07 178.47 223.491 178.47L229.886 153.46Z" fill="black"/>
<path d="M226.873 147.026L229.687 178.27C235.103 177.402 241.249 176.385 246.576 172.963L236.6 142.856L226.873 147.026Z" fill="#0779A0"/>
<path d="M295.099 85.035H346.814C347.446 85.0324 348.071 85.1547 348.655 85.3947C349.239 85.6348 349.77 85.988 350.217 86.434C350.664 86.88 351.018 87.4099 351.259 87.9933C351.501 88.5768 351.624 89.2021 351.623 89.8335V125.158C351.624 125.79 351.501 126.416 351.259 127C351.018 127.584 350.664 128.115 350.217 128.561C349.771 129.008 349.24 129.362 348.656 129.603C348.072 129.845 347.446 129.968 346.814 129.967H302.92L295.059 138.027C294.693 138.464 294.199 138.775 293.647 138.917C293.095 139.058 292.512 139.023 291.981 138.816C291.45 138.609 290.998 138.24 290.687 137.762C290.377 137.285 290.224 136.721 290.251 136.152V89.8335C290.249 89.1987 290.374 88.5701 290.618 87.984C290.862 87.398 291.22 86.8662 291.671 86.4197C292.122 85.9732 292.657 85.6209 293.246 85.3831C293.834 85.1454 294.464 85.0271 295.099 85.035Z" fill="#8FE5EA"/>
<path d="M298.341 95.7693L298.391 100.877H341.008L340.958 95.7693H298.341Z" fill="white"/>
<path d="M314.632 111.831V116.938H340.978V111.831H314.632Z" fill="white"/>
<path d="M298.341 95.7693V100.877H306.481V95.7693H298.341Z" fill="white"/>
<path d="M298.82 111.831V116.938H306.95V111.831H298.82Z" fill="white"/>
<path d="M104.099 116.549H52.3837C51.7519 116.548 51.1261 116.671 50.5421 116.912C49.9581 117.154 49.4275 117.508 48.9807 117.955C48.534 118.401 48.1798 118.932 47.9387 119.516C47.6975 120.1 47.574 120.726 47.5753 121.357V156.682C47.574 157.314 47.6975 157.94 47.9387 158.524C48.1798 159.108 48.534 159.639 48.9807 160.085C49.4275 160.532 49.9581 160.886 50.5421 161.127C51.1261 161.369 51.7519 161.492 52.3837 161.491H96.278L104.139 169.541C104.504 169.978 104.997 170.288 105.548 170.43C106.099 170.572 106.681 170.537 107.212 170.331C107.742 170.125 108.195 169.759 108.506 169.282C108.817 168.806 108.972 168.244 108.947 167.676V121.357C108.949 120.726 108.825 120.1 108.584 119.516C108.343 118.932 107.989 118.401 107.542 117.955C107.095 117.508 106.565 117.154 105.981 116.912C105.397 116.671 104.771 116.548 104.139 116.549H104.099Z" fill="#8FE5EA"/>
<path d="M100.857 127.243V132.361H58.1898L58.2396 127.243H100.857Z" fill="white"/>
<path d="M84.5562 143.354V148.462H58.1898V143.354H84.5562Z" fill="white"/>
<path d="M100.857 127.243V132.361H92.7166V127.243H100.857Z" fill="white"/>
<path d="M100.378 143.354V148.462H92.2377V143.354H100.378Z" fill="white"/>
<path d="M415 375.625H0V415H415V375.625Z" fill="#DEFBFF"/>
</g>
<defs>
<clipPath id="clip0_1_1214">
<rect width="415" height="415" fill="white"/>
</clipPath>
</defs>
</svg>
